<svg width="422" height="377" viewBox="0 0 422 377" fill="none" xmlns="http://www.w3.org/2000/svg">
<rect width="422" height="377" rx="5" fill="#2F3A4C"/>
<path d="M115.762 217.142H117.76C119.182 217.142 119.812 216.44 119.812 215.324C119.812 214.172 119.182 213.488 117.76 213.488H115.762V217.142ZM122.404 215.324C122.404 217.232 121.108 219.176 117.868 219.176H115.762V224H113.242V211.436H117.868C120.892 211.436 122.404 213.146 122.404 215.324ZM124.193 224V210.68H126.713V224H124.193ZM133.487 215.936C132.281 215.936 131.327 216.71 131.129 218.078H135.863C135.827 216.764 134.783 215.936 133.487 215.936ZM138.221 220.868C137.681 222.704 136.025 224.162 133.559 224.162C130.661 224.162 128.555 222.146 128.555 219.014C128.555 215.864 130.607 213.866 133.559 213.866C136.439 213.866 138.473 215.828 138.473 218.798C138.473 219.122 138.455 219.446 138.401 219.77H131.111C131.237 221.246 132.245 222.074 133.505 222.074C134.585 222.074 135.179 221.534 135.503 220.868H138.221ZM139.664 218.978C139.664 215.864 141.68 213.866 144.218 213.866C145.82 213.866 146.918 214.622 147.512 215.45V214.028H150.05V224H147.512V222.542C146.918 223.406 145.784 224.162 144.2 224.162C141.68 224.162 139.664 222.092 139.664 218.978ZM147.512 219.014C147.512 217.124 146.252 216.08 144.866 216.08C143.516 216.08 142.238 217.088 142.238 218.978C142.238 220.868 143.516 221.948 144.866 221.948C146.252 221.948 147.512 220.904 147.512 219.014ZM160.252 221.156C160.252 222.866 158.758 224.162 156.328 224.162C153.826 224.162 152.08 222.704 151.972 220.85H154.51C154.6 221.606 155.302 222.182 156.31 222.182C157.3 222.182 157.84 221.732 157.84 221.156C157.84 219.374 152.206 220.508 152.206 216.854C152.206 215.198 153.682 213.866 156.148 213.866C158.56 213.866 160.018 215.18 160.162 217.16H157.75C157.678 216.386 157.066 215.864 156.076 215.864C155.14 215.864 154.654 216.242 154.654 216.818C154.654 218.636 160.18 217.502 160.252 221.156ZM166.604 215.936C165.398 215.936 164.444 216.71 164.246 218.078H168.98C168.944 216.764 167.9 215.936 166.604 215.936ZM171.338 220.868C170.798 222.704 169.142 224.162 166.676 224.162C163.778 224.162 161.672 222.146 161.672 219.014C161.672 215.864 163.724 213.866 166.676 213.866C169.556 213.866 171.59 215.828 171.59 218.798C171.59 219.122 171.572 219.446 171.518 219.77H164.228C164.354 221.246 165.362 222.074 166.622 222.074C167.702 222.074 168.296 221.534 168.62 220.868H171.338ZM177.107 217.7C177.107 213.938 179.861 211.274 183.479 211.274C186.269 211.274 188.537 212.768 189.383 215.342H186.485C185.891 214.136 184.811 213.542 183.461 213.542C181.265 213.542 179.699 215.144 179.699 217.7C179.699 220.238 181.265 221.858 183.461 221.858C184.811 221.858 185.891 221.264 186.485 220.04H189.383C188.537 222.632 186.269 224.108 183.479 224.108C179.861 224.108 177.107 221.462 177.107 217.7ZM191.535 224V210.68H194.055V215.27C194.703 214.424 195.819 213.884 197.151 213.884C199.401 213.884 201.039 215.396 201.039 218.15V224H198.519V218.492C198.519 216.89 197.637 216.026 196.305 216.026C194.937 216.026 194.055 216.89 194.055 218.492V224H191.535ZM213.065 219.014C213.065 222.146 210.761 224.162 207.863 224.162C204.983 224.162 202.805 222.146 202.805 219.014C202.805 215.864 205.055 213.866 207.935 213.866C210.815 213.866 213.065 215.864 213.065 219.014ZM205.361 219.014C205.361 220.994 206.513 221.966 207.863 221.966C209.195 221.966 210.473 220.994 210.473 219.014C210.473 217.016 209.231 216.062 207.899 216.062C206.567 216.062 205.361 217.016 205.361 219.014ZM224.544 219.014C224.544 222.146 222.24 224.162 219.342 224.162C216.462 224.162 214.284 222.146 214.284 219.014C214.284 215.864 216.534 213.866 219.414 213.866C222.294 213.866 224.544 215.864 224.544 219.014ZM216.84 219.014C216.84 220.994 217.992 221.966 219.342 221.966C220.674 221.966 221.952 220.994 221.952 219.014C221.952 217.016 220.71 216.062 219.378 216.062C218.046 216.062 216.84 217.016 216.84 219.014ZM234.132 221.156C234.132 222.866 232.638 224.162 230.208 224.162C227.706 224.162 225.96 222.704 225.852 220.85H228.39C228.48 221.606 229.182 222.182 230.19 222.182C231.18 222.182 231.72 221.732 231.72 221.156C231.72 219.374 226.086 220.508 226.086 216.854C226.086 215.198 227.562 213.866 230.028 213.866C232.44 213.866 233.898 215.18 234.042 217.16H231.63C231.558 216.386 230.946 215.864 229.956 215.864C229.02 215.864 228.534 216.242 228.534 216.818C228.534 218.636 234.06 217.502 234.132 221.156ZM240.485 215.936C239.279 215.936 238.325 216.71 238.127 218.078H242.861C242.825 216.764 241.781 215.936 240.485 215.936ZM245.219 220.868C244.679 222.704 243.023 224.162 240.557 224.162C237.659 224.162 235.553 222.146 235.553 219.014C235.553 215.864 237.605 213.866 240.557 213.866C243.437 213.866 245.471 215.828 245.471 218.798C245.471 219.122 245.453 219.446 245.399 219.77H238.109C238.235 221.246 239.243 222.074 240.503 222.074C241.583 222.074 242.177 221.534 242.501 220.868H245.219ZM251.599 224V211.436H254.119V224H251.599ZM270.559 224V218.492C270.559 216.908 269.677 216.08 268.345 216.08C266.995 216.08 266.113 216.908 266.113 218.492V224H263.593V218.492C263.593 216.908 262.711 216.08 261.379 216.08C260.011 216.08 259.129 216.908 259.129 218.492V224H256.609V214.028H259.129V215.234C259.759 214.406 260.821 213.884 262.063 213.884C263.611 213.884 264.889 214.55 265.573 215.792C266.221 214.658 267.535 213.884 268.993 213.884C271.387 213.884 273.079 215.396 273.079 218.15V224H270.559ZM274.823 218.978C274.823 215.864 276.839 213.866 279.377 213.866C280.979 213.866 282.077 214.622 282.671 215.45V214.028H285.209V224H282.671V222.542C282.077 223.406 280.943 224.162 279.359 224.162C276.839 224.162 274.823 222.092 274.823 218.978ZM282.671 219.014C282.671 217.124 281.411 216.08 280.025 216.08C278.675 216.08 277.397 217.088 277.397 218.978C277.397 220.868 278.675 221.948 280.025 221.948C281.411 221.948 282.671 220.904 282.671 219.014ZM287.022 218.978C287.022 215.864 289.038 213.866 291.576 213.866C293.142 213.866 294.276 214.586 294.87 215.45V214.028H297.408V224.072C297.408 226.772 295.752 228.914 292.476 228.914C289.668 228.914 287.706 227.51 287.454 225.224H289.956C290.208 226.124 291.144 226.718 292.404 226.718C293.79 226.718 294.87 225.926 294.87 224.072V222.524C294.276 223.388 293.142 224.162 291.576 224.162C289.038 224.162 287.022 222.092 287.022 218.978ZM294.87 219.014C294.87 217.124 293.61 216.08 292.224 216.08C290.874 216.08 289.596 217.088 289.596 218.978C289.596 220.868 290.874 221.948 292.224 221.948C293.61 221.948 294.87 220.904 294.87 219.014ZM304.153 215.936C302.947 215.936 301.993 216.71 301.795 218.078H306.529C306.493 216.764 305.449 215.936 304.153 215.936ZM308.887 220.868C308.347 222.704 306.691 224.162 304.225 224.162C301.327 224.162 299.221 222.146 299.221 219.014C299.221 215.864 301.273 213.866 304.225 213.866C307.105 213.866 309.139 215.828 309.139 218.798C309.139 219.122 309.121 219.446 309.067 219.77H301.777C301.903 221.246 302.911 222.074 304.171 222.074C305.251 222.074 305.845 221.534 306.169 220.868H308.887Z" fill="white"/>
<path d="M196.333 185C195.142 185 194.122 184.576 193.274 183.728C192.426 182.88 192.001 181.86 192 180.667V150.333C192 149.142 192.425 148.122 193.274 147.274C194.123 146.426 195.143 146.001 196.333 146H226.667C227.858 146 228.879 146.425 229.728 147.274C230.577 148.123 231.001 149.143 231 150.333V180.667C231 181.858 230.576 182.879 229.728 183.728C228.88 184.577 227.86 185.001 226.667 185H196.333ZM198.5 176.333H224.5L216.375 165.5L209.875 174.167L205 167.667L198.5 176.333Z" fill="#5D5FEF"/>
</svg>
