<svg width="162" height="162" viewBox="0 0 162 162" fill="none" xmlns="http://www.w3.org/2000/svg">
<path d="M90 162V144H108V162H90ZM72 144V99H90V144H72ZM144 117V81H162V117H144ZM126 81V63H144V81H126ZM18 99V81H36V99H18ZM3.11419e-05 81V63H18V81H3.11419e-05ZM81 18V3.11419e-05H99V18H81ZM13.5 40.5H40.5V13.5H13.5V40.5ZM3.11419e-05 45V9.00003C3.11419e-05 6.45003 0.864032 4.31103 2.59203 2.58303C4.32003 0.85503 6.45603 -0.00596886 9.00003 3.11419e-05H45C47.55 3.11419e-05 49.689 0.864032 51.417 2.59203C53.145 4.32003 54.006 6.45603 54 9.00003V45C54 47.55 53.136 49.689 51.408 51.417C49.68 53.145 47.544 54.006 45 54H9.00003C6.45003 54 4.31103 53.136 2.58303 51.408C0.85503 49.68 -0.00596886 47.544 3.11419e-05 45ZM13.5 148.5H40.5V121.5H13.5V148.5ZM3.11419e-05 153V117C3.11419e-05 114.45 0.864032 112.311 2.59203 110.583C4.32003 108.855 6.45603 107.994 9.00003 108H45C47.55 108 49.689 108.864 51.417 110.592C53.145 112.32 54.006 114.456 54 117V153C54 155.55 53.136 157.689 51.408 159.417C49.68 161.145 47.544 162.006 45 162H9.00003C6.45003 162 4.31103 161.136 2.58303 159.408C0.85503 157.68 -0.00596886 155.544 3.11419e-05 153ZM121.5 40.5H148.5V13.5H121.5V40.5ZM108 45V9.00003C108 6.45003 108.864 4.31103 110.592 2.58303C112.32 0.85503 114.456 -0.00596886 117 3.11419e-05H153C155.55 3.11419e-05 157.689 0.864032 159.417 2.59203C161.145 4.32003 162.006 6.45603 162 9.00003V45C162 47.55 161.136 49.689 159.408 51.417C157.68 53.145 155.544 54.006 153 54H117C114.45 54 112.311 53.136 110.583 51.408C108.855 49.68 107.994 47.544 108 45ZM126 162V135H108V117H144V144H162V162H126ZM90 99V81H126V99H90ZM54 99V81H36V63H90V81H72V99H54ZM63 54V18H81V36H99V54H63ZM20.25 33.75V20.25H33.75V33.75H20.25ZM20.25 141.75V128.25H33.75V141.75H20.25ZM128.25 33.75V20.25H141.75V33.75H128.25Z" fill="white"/>
</svg>
