<svg width="219" height="53" viewBox="0 0 219 53" fill="none" xmlns="http://www.w3.org/2000/svg">
<path d="M8.115 47L7.485 45.14H3.555L2.925 47H0.24L4.05 36.47H7.02L10.83 47H8.115ZM6.825 43.16L5.52 39.305L4.23 43.16H6.825ZM23.3596 44.57C23.3596 46.025 22.0696 47.12 19.9696 47.12C17.7346 47.12 16.2346 45.875 16.1146 44.255H18.6496C18.7096 44.84 19.2346 45.23 19.9396 45.23C20.5996 45.23 20.9446 44.93 20.9446 44.555C20.9446 43.205 16.3846 44.18 16.3846 41.105C16.3846 39.68 17.5996 38.51 19.7896 38.51C21.9496 38.51 23.1496 39.71 23.3146 41.36H20.9446C20.8696 40.79 20.4346 40.415 19.7146 40.415C19.1146 40.415 18.7846 40.655 18.7846 41.06C18.7846 42.395 23.3146 41.45 23.3596 44.57ZM29.9088 44.09V40.76H28.8888V38.63H29.9088V36.59H32.4738V38.63H34.1538V40.76H32.4738V44.12C32.4738 44.615 32.6838 44.825 33.2538 44.825H34.1688V47H32.8638C31.1238 47 29.9088 46.265 29.9088 44.09ZM42.7376 43.115V47H40.1726V38.63H42.7376V40.025C43.3226 39.14 44.2376 38.54 45.3626 38.54V41.255H44.6576C43.4426 41.255 42.7376 41.675 42.7376 43.115ZM50.6536 42.8C50.6536 40.16 52.2886 38.51 54.3436 38.51C55.5886 38.51 56.4736 39.08 56.9236 39.815V38.63H59.4886V47H56.9236V45.815C56.4586 46.55 55.5736 47.12 54.3286 47.12C52.2886 47.12 50.6536 45.44 50.6536 42.8ZM56.9236 42.815C56.9236 41.48 56.0686 40.745 55.0936 40.745C54.1336 40.745 53.2636 41.465 53.2636 42.8C53.2636 44.135 54.1336 44.885 55.0936 44.885C56.0686 44.885 56.9236 44.15 56.9236 42.815ZM80.228 47V42.665H76.238V47H73.673V36.47H76.238V40.595H80.228V36.47H82.793V47H80.228ZM97.4097 42.815C97.4097 45.47 95.4897 47.12 93.0297 47.12C90.5697 47.12 88.7096 45.47 88.7096 42.815C88.7096 40.16 90.6146 38.51 93.0597 38.51C95.5197 38.51 97.4097 40.16 97.4097 42.815ZM91.3197 42.815C91.3197 44.225 92.0997 44.9 93.0297 44.9C93.9447 44.9 94.7997 44.225 94.7997 42.815C94.7997 41.39 93.9597 40.73 93.0597 40.73C92.1297 40.73 91.3197 41.39 91.3197 42.815ZM109.12 47V42.455C109.12 41.315 108.49 40.685 107.515 40.685C106.54 40.685 105.91 41.315 105.91 42.455V47H103.345V38.63H105.91V39.74C106.42 39.035 107.32 38.54 108.445 38.54C110.38 38.54 111.67 39.86 111.67 42.11V47H109.12ZM117.518 42.8C117.518 40.16 119.153 38.51 121.208 38.51C122.318 38.51 123.278 39.02 123.788 39.785V35.9H126.353V47H123.788V45.8C123.323 46.565 122.438 47.12 121.208 47.12C119.153 47.12 117.518 45.44 117.518 42.8ZM123.788 42.815C123.788 41.48 122.933 40.745 121.958 40.745C120.998 40.745 120.128 41.465 120.128 42.8C120.128 44.135 120.998 44.885 121.958 44.885C122.933 44.885 123.788 44.15 123.788 42.815ZM132.274 42.8C132.274 40.16 133.909 38.51 135.964 38.51C137.209 38.51 138.094 39.08 138.544 39.815V38.63H141.109V47H138.544V45.815C138.079 46.55 137.194 47.12 135.949 47.12C133.909 47.12 132.274 45.44 132.274 42.8ZM138.544 42.815C138.544 41.48 137.689 40.745 136.714 40.745C135.754 40.745 134.884 41.465 134.884 42.8C134.884 44.135 135.754 44.885 136.714 44.885C137.689 44.885 138.544 44.15 138.544 42.815ZM155.293 47V36.47H158.323L161.278 43.76L164.203 36.47H167.218V47H164.653V40.685L162.298 47H160.228L157.858 40.67V47H155.293ZM181.827 42.815C181.827 45.47 179.907 47.12 177.447 47.12C174.987 47.12 173.127 45.47 173.127 42.815C173.127 40.16 175.032 38.51 177.477 38.51C179.937 38.51 181.827 40.16 181.827 42.815ZM175.737 42.815C175.737 44.225 176.517 44.9 177.447 44.9C178.362 44.9 179.217 44.225 179.217 42.815C179.217 41.39 178.377 40.73 177.477 40.73C176.547 40.73 175.737 41.39 175.737 42.815ZM188.168 44.09V40.76H187.148V38.63H188.168V36.59H190.733V38.63H192.413V40.76H190.733V44.12C190.733 44.615 190.943 44.825 191.513 44.825H192.428V47H191.123C189.383 47 188.168 46.265 188.168 44.09ZM206.622 42.815C206.622 45.47 204.702 47.12 202.242 47.12C199.782 47.12 197.922 45.47 197.922 42.815C197.922 40.16 199.827 38.51 202.272 38.51C204.732 38.51 206.622 40.16 206.622 42.815ZM200.532 42.815C200.532 44.225 201.312 44.9 202.242 44.9C203.157 44.9 204.012 44.225 204.012 42.815C204.012 41.39 203.172 40.73 202.272 40.73C201.342 40.73 200.532 41.39 200.532 42.815ZM215.123 43.115V47H212.558V38.63H215.123V40.025C215.708 39.14 216.623 38.54 217.748 38.54V41.255H217.043C215.828 41.255 215.123 41.675 215.123 43.115Z" fill="white"/>
<path d="M148.309 27.2853V0H169.1L184.347 21.3537L198.208 0H218.999V27.2853H205.138V5.93159L189.891 27.2853H176.03L160.783 5.93159V27.2853H148.309Z" fill="#DD1B00"/>
<path d="M16.633 26.099H0L26.3356 0H44.3546L70.6902 26.099H54.0572L34.6521 7.1179L16.633 26.099Z" fill="#DD1B00"/>
<path d="M77.6206 27.2853V0H92.8675V10.6769H121.975V0H137.222V27.2853H121.975V16.6084H92.8675V27.2853H77.6206Z" fill="#DD1B00"/>
</svg>
