<svg width="27" height="27" viewBox="0 0 27 27" fill="none" xmlns="http://www.w3.org/2000/svg">
<path d="M7.36808 20.9484L11.3315 16.985L10.015 15.6685L6.05158 19.6319L5.31326 18.8936C5.13867 18.719 4.9019 18.621 4.65502 18.621C4.40814 18.621 4.17137 18.719 3.99677 18.8936L0.272597 22.6178C0.0980532 22.7924 0 23.0291 0 23.276C0 23.5229 0.0980532 23.7597 0.272597 23.9343L3.06573 26.7274C3.24032 26.9019 3.47709 27 3.72397 27C3.97085 27 4.20762 26.9019 4.38222 26.7274L8.10639 23.0032C8.28094 22.8286 8.37899 22.5918 8.37899 22.345C8.37899 22.0981 8.28094 21.8613 8.10639 21.6867L7.36808 20.9484ZM3.72397 24.7526L2.24734 23.276L4.65502 20.8683L6.13165 22.345L3.72397 24.7526Z" fill="#5D5FEF"/>
<path d="M21.4184 26.0688C19.9374 26.0671 18.5175 25.478 17.4702 24.4308C16.423 23.3835 15.8339 21.9636 15.8321 20.4826C15.8325 19.9959 15.8983 19.5115 16.0277 19.0423L7.96295 10.9766C7.49344 11.106 7.0087 11.1717 6.5217 11.1722C5.61154 11.1758 4.71438 10.9561 3.90889 10.5323C3.1034 10.1085 2.41416 9.49363 1.90162 8.7415C1.38908 7.98936 1.06888 7.12297 0.969088 6.21829C0.869301 5.31361 0.992977 4.39826 1.32927 3.5525L1.84879 2.22949L4.93241 5.3131C5.1096 5.48231 5.34518 5.57672 5.59019 5.57672C5.8352 5.57672 6.07078 5.48231 6.24797 5.3131C6.33451 5.22672 6.40316 5.12411 6.45 5.01116C6.49685 4.89821 6.52096 4.77713 6.52096 4.65486C6.52096 4.53258 6.49685 4.4115 6.45 4.29855C6.40316 4.1856 6.33451 4.083 6.24797 3.99661L3.16529 0.911133L4.49016 0.392542C5.33591 0.0568479 6.25108 -0.0663321 7.15548 0.033793C8.05989 0.133918 8.92595 0.454293 9.67779 0.966853C10.4296 1.47941 11.0443 2.16852 11.468 2.9738C11.8917 3.77908 12.1114 4.67597 12.108 5.5859C12.1075 6.0726 12.0418 6.55703 11.9124 7.02622L19.9781 15.0919C20.4473 14.9627 20.9317 14.8969 21.4184 14.8963C22.3286 14.8927 23.2257 15.1124 24.0312 15.5362C24.8367 15.9599 25.5259 16.5749 26.0385 17.327C26.551 18.0791 26.8712 18.9455 26.971 19.8502C27.0708 20.7549 26.9471 21.6702 26.6108 22.516L26.0922 23.839L23.0077 20.7554C22.8305 20.5862 22.5949 20.4918 22.3499 20.4918C22.1049 20.4918 21.8693 20.5862 21.6921 20.7554C21.6055 20.8417 21.5368 20.9443 21.4899 21.0572C21.443 21.1701 21.4188 21.2912 21.4187 21.4134C21.4186 21.5357 21.4426 21.6568 21.4894 21.7698C21.5361 21.8828 21.6047 21.9854 21.6912 22.0719L24.7757 25.1564L23.4518 25.6759C22.8047 25.9334 22.1148 26.0666 21.4184 26.0688ZM8.44151 8.82221L18.1812 18.5618L17.9586 19.1298C17.7406 19.6749 17.6553 20.2641 17.71 20.8486C17.7646 21.4332 17.9575 21.9964 18.2728 22.4917C18.588 22.9869 19.0166 23.4001 19.5231 23.697C20.0296 23.994 20.5995 24.1661 21.1856 24.1993L20.3747 23.3893C20.1153 23.1299 19.9095 22.822 19.7691 22.4831C19.6287 22.1442 19.5564 21.7809 19.5564 21.4141C19.5564 21.0473 19.6287 20.684 19.7691 20.3451C19.9095 20.0062 20.1153 19.6983 20.3747 19.4389C20.9068 18.9308 21.6142 18.6473 22.3499 18.6473C23.0856 18.6473 23.793 18.9308 24.3251 19.4389L25.1351 20.2498C25.1018 19.6636 24.9295 19.0938 24.6325 18.5873C24.3354 18.0808 23.9222 17.6522 23.4268 17.337C22.9315 17.0217 22.3683 16.8288 21.7836 16.7742C21.199 16.7196 20.6098 16.8048 20.0647 17.0228L19.4977 17.2454L9.75894 7.50664L9.98239 6.93871C10.2005 6.39352 10.2857 5.80427 10.231 5.21964C10.1764 4.63501 9.98336 4.07177 9.66798 3.57647C9.35261 3.08117 8.92391 2.66802 8.4173 2.37115C7.91069 2.07428 7.34071 1.90222 6.75446 1.86918L7.56447 2.67918C7.82388 2.93856 8.02967 3.24649 8.17006 3.5854C8.31046 3.92431 8.38272 4.28755 8.38272 4.65439C8.38272 5.02123 8.31046 5.38448 8.17006 5.72339C8.02967 6.06229 7.82388 6.37023 7.56447 6.6296C7.03237 7.13767 6.32496 7.42117 5.58926 7.42117C4.85356 7.42117 4.14614 7.13767 3.61405 6.6296L2.80404 5.81866C2.83723 6.40483 3.00939 6.9747 3.30632 7.48119C3.60325 7.98768 4.01641 8.41626 4.5117 8.73153C5.00698 9.0468 5.57016 9.23972 6.15472 9.29434C6.73929 9.34896 7.32846 9.26372 7.87357 9.04566L8.44151 8.82221Z" fill="#5D5FEF"/>
<path d="M26.1756 0.791567C25.6435 0.283496 24.9361 0 24.2004 0C23.4647 0 22.7573 0.283496 22.2252 0.791567L15.261 7.75577L16.5775 9.07227L23.5417 2.10806C23.719 1.9388 23.9548 1.84435 24.1999 1.84435C24.4451 1.84435 24.6808 1.9388 24.8582 2.10806C25.0323 2.2829 25.13 2.51958 25.13 2.76631C25.13 3.01304 25.0323 3.24972 24.8582 3.42456L17.894 10.3888L19.2105 11.7062L26.1747 4.74198C26.6979 4.21779 26.9918 3.50741 26.9918 2.76678C26.9918 2.02614 26.6988 1.31576 26.1756 0.791567Z" fill="#5D5FEF"/>
</svg>
