<svg width="34" height="29" viewBox="0 0 34 29" fill="none" xmlns="http://www.w3.org/2000/svg">
<path d="M21.6471 21.5C20.1588 21.5 21.6471 19.96 21.6471 21.5C20.8353 21.08 21.6471 22.48 21.6471 21.5V18.7C22.4588 18.7 23 18.14 23 17.3V4.7C23 3.86 22.4588 3.3 21.6471 3.3H16.5059C15.4235 1.62 13.5294 0.5 11.5 0.5C9.47059 0.5 7.57647 1.62 6.49412 3.3H1.35294C0.541176 3.3 0 3.86 0 4.7V17.3C0 18.14 0.541176 18.7 1.35294 18.7V28.5H21.6471V24.3C21.6471 23.5938 21.6471 25.84 21.6471 24.3C21.6471 23.4792 21.6471 25.28 21.6471 24.3C21.6471 22.76 21.6471 22.0938 21.6471 21.5ZM16.2353 24.3H6.76471V21.5H16.2353V24.3ZM20.2941 15.9H2.70588V6.1H20.2941V15.9Z" fill="#6E738D"/>
<path d="M27.584 3V6.58398H24V9.41602H27.584V13H30.416V9.41602H34V6.58398H30.416V3H27.584Z" fill="#6E738D"/>
</svg>
