<svg width="21" height="21" viewBox="0 0 21 21" fill="none" xmlns="http://www.w3.org/2000/svg">
<path d="M15.3125 9.625C13.8041 9.625 12.3574 10.2242 11.2908 11.2908C10.2242 12.3574 9.625 13.8041 9.625 15.3125C9.625 16.8209 10.2242 18.2676 11.2908 19.3342C12.3574 20.4008 13.8041 21 15.3125 21C16.8209 21 18.2676 20.4008 19.3342 19.3342C20.4008 18.2676 21 16.8209 21 15.3125C21 13.8041 20.4008 12.3574 19.3342 11.2908C18.2676 10.2242 16.8209 9.625 15.3125 9.625ZM17.8008 14.957C17.8951 14.957 17.9855 14.9945 18.0521 15.0611C18.1188 15.1278 18.1562 15.2182 18.1562 15.3125C18.1562 15.4068 18.1188 15.4972 18.0521 15.5639C17.9855 15.6305 17.8951 15.668 17.8008 15.668H13.6823L15.2087 17.1936C15.2418 17.2267 15.268 17.2659 15.2859 17.3091C15.3037 17.3523 15.3129 17.3986 15.3129 17.4453C15.3129 17.4921 15.3037 17.5383 15.2859 17.5815C15.268 17.6247 15.2418 17.6639 15.2087 17.697C15.1757 17.73 15.1364 17.7563 15.0932 17.7741C15.0501 17.792 15.0038 17.8012 14.957 17.8012C14.9103 17.8012 14.864 17.792 14.8208 17.7741C14.7776 17.7563 14.7384 17.73 14.7054 17.697L12.5725 15.5642C12.5394 15.5312 12.5132 15.4919 12.4953 15.4487C12.4773 15.4056 12.4681 15.3593 12.4681 15.3125C12.4681 15.2657 12.4773 15.2194 12.4953 15.1763C12.5132 15.1331 12.5394 15.0938 12.5725 15.0608L14.7054 12.928C14.7721 12.8613 14.8626 12.8238 14.957 12.8238C15.0514 12.8238 15.142 12.8613 15.2087 12.928C15.2755 12.9948 15.3129 13.0853 15.3129 13.1797C15.3129 13.2741 15.2755 13.3646 15.2087 13.4314L13.6823 14.957H17.8008Z" fill="#6E738D"/>
<path d="M11.4882 0.313552C10.4574 -0.104517 9.30734 -0.104517 8.27647 0.313552L1.16488 3.20006C0.821358 3.33934 0.526827 3.57967 0.319219 3.89012C0.11161 4.20057 0.000431629 4.56692 2.58616e-08 4.94199V14.5169C-6.18437e-05 14.8924 0.110887 15.2593 0.318527 15.5703C0.526167 15.8812 0.820968 16.1219 1.16488 16.2614L8.27647 19.1454C8.81651 19.3646 9.39464 19.4711 9.97623 19.4584C9.67556 19.0468 9.42116 18.6024 9.21776 18.1335C9.05339 18.0969 8.89226 18.0466 8.736 17.9833L1.62318 15.0992C1.50848 15.0526 1.41022 14.9723 1.34107 14.8684C1.27192 14.7646 1.23508 14.6422 1.23529 14.5169V5.01963L9.26471 8.27556V12.492C9.5743 11.8102 9.99154 11.1842 10.5 10.6386V8.27431L18.5294 5.01838V9.2273C18.9716 9.45646 19.3855 9.73322 19.7647 10.0513V4.94199C19.7648 4.56649 19.6538 4.1996 19.4462 3.88866C19.2385 3.57771 18.9437 3.33699 18.5998 3.19756L11.4882 0.313552ZM8.736 1.47817C9.47229 1.1796 10.2937 1.1796 11.0299 1.47817L17.4844 4.09544L14.6691 5.23502L7.06712 2.15441L8.73477 1.47817H8.736ZM5.40441 2.82688L13.0064 5.90875L9.88235 7.17731L2.28035 4.09419L5.40441 2.82813V2.82688Z" fill="#6E738D"/>
</svg>
