<svg width="26" height="33" viewBox="0 0 26 33" fill="none" xmlns="http://www.w3.org/2000/svg">
<path d="M26 6.5C26 2.977 20.0476 0 13 0C5.95238 0 0 2.977 0 6.5V9.75C0 13.273 5.95238 16.25 13 16.25C20.0476 16.25 26 13.273 26 9.75V6.5ZM13 27.625C5.95238 27.625 0 24.648 0 21.125V26C0 29.523 5.95238 32.5 13 32.5C20.0476 32.5 26 29.523 26 26V21.125C26 24.648 20.0476 27.625 13 27.625Z" fill="#6E738D"/>
<path d="M26 13C26 16.523 20.0476 19.5 13 19.5C5.95238 19.5 0 16.523 0 13V17.875C0 21.398 5.95238 24.375 13 24.375C20.0476 24.375 26 21.398 26 17.875V13Z" fill="#6E738D"/>
</svg>
