<svg width="17" height="27" viewBox="0 0 17 27" fill="none" xmlns="http://www.w3.org/2000/svg">
<path d="M13.5 1.6875C13.9476 1.6875 14.3768 1.86529 14.6932 2.18176C15.0097 2.49822 15.1875 2.92745 15.1875 3.375V23.625C15.1875 24.0726 15.0097 24.5018 14.6932 24.8182C14.3768 25.1347 13.9476 25.3125 13.5 25.3125H3.375C2.92745 25.3125 2.49823 25.1347 2.18176 24.8182C1.86529 24.5018 1.6875 24.0726 1.6875 23.625V3.375C1.6875 2.92745 1.86529 2.49822 2.18176 2.18176C2.49823 1.86529 2.92745 1.6875 3.375 1.6875H13.5ZM3.375 0C2.47989 0 1.62145 0.355579 0.988514 0.988515C0.355579 1.62145 0 2.47989 0 3.375V23.625C0 24.5201 0.355579 25.3785 0.988514 26.0115C1.62145 26.6444 2.47989 27 3.375 27H13.5C14.3951 27 15.2535 26.6444 15.8865 26.0115C16.5194 25.3785 16.875 24.5201 16.875 23.625V3.375C16.875 2.47989 16.5194 1.62145 15.8865 0.988515C15.2535 0.355579 14.3951 0 13.5 0L3.375 0Z" fill="#5D5FEF"/>
<path d="M8.4375 23.625C8.88505 23.625 9.31427 23.4472 9.63074 23.1307C9.94721 22.8143 10.125 22.3851 10.125 21.9375C10.125 21.4899 9.94721 21.0607 9.63074 20.7443C9.31427 20.4278 8.88505 20.25 8.4375 20.25C7.98995 20.25 7.56073 20.4278 7.24426 20.7443C6.92779 21.0607 6.75 21.4899 6.75 21.9375C6.75 22.3851 6.92779 22.8143 7.24426 23.1307C7.56073 23.4472 7.98995 23.625 8.4375 23.625Z" fill="#5D5FEF"/>
</svg>
