<svg width="83" height="83" viewBox="0 0 83 83" fill="none" xmlns="http://www.w3.org/2000/svg">
<path d="M5.5334 5.5334H27.667V0H0V27.667H5.5334V5.5334Z" fill="white"/>
<path d="M27.6666 27.667V11.0668H11.0664V27.667H27.6666ZM16.5998 16.6002H22.1332V22.1336H16.5998V16.6002ZM53.9502 5.5334H77.4672V27.667H83.0005V0H53.9502V5.5334Z" fill="white"/>
<path d="M71.9341 27.6666V11.0664H55.334V27.6666H71.9341ZM60.8674 16.5998H66.4007V22.1332H60.8674V16.5998ZM27.667 77.4672H5.5334V55.3336H0V83.0005H27.667V77.4672Z" fill="white"/>
<path d="M27.6666 55.332H11.0664V71.9322H27.6666V55.332ZM22.1332 66.3988H16.5998V60.8654H22.1332V66.3988ZM77.4672 77.4656H53.9502V82.999H83.0005V55.332H77.4672V77.4656Z" fill="white"/>
<path d="M44.2656 49.799H66.3992V60.8658H71.9326V44.2656H44.2656V49.799Z" fill="white"/>
<path d="M71.9338 71.9338V66.4004H38.7334V44.2668H11.0664V49.8002H33.2V71.9338H71.9338ZM33.2 11.0664H38.7334V27.6666H33.2V11.0664Z" fill="white"/>
<path d="M11.0664 38.7334H49.8002V11.0664H44.2668V33.2H11.0664V38.7334ZM55.3336 33.2H71.9338V38.7334H55.3336V33.2ZM55.3336 55.3336H60.867V60.867H55.3336V55.3336ZM44.2668 55.3336H49.8002V60.867H44.2668V55.3336Z" fill="white"/>
</svg>
