<svg width="22" height="28" viewBox="0 0 22 28" fill="none" xmlns="http://www.w3.org/2000/svg">
<path d="M22 8.4L13.75 0H2.75C2.02065 0 1.32118 0.294999 0.805456 0.820101C0.289731 1.3452 0 2.05739 0 2.8V25.2C0 25.9426 0.289731 26.6548 0.805456 27.1799C1.32118 27.705 2.02065 28 2.75 28H19.25C19.9793 28 20.6788 27.705 21.1945 27.1799C21.7103 26.6548 22 25.9426 22 25.2V8.4ZM6.875 23.8H4.125V11.2H6.875V23.8ZM12.375 23.8H9.625V15.4H12.375V23.8ZM17.875 23.8H15.125V19.6H17.875V23.8ZM13.75 9.8H12.375V2.8L19.25 9.8H13.75Z" fill="#5D5FEF"/>
</svg>
