<svg width="26" height="26" viewBox="0 0 26 26" fill="none" xmlns="http://www.w3.org/2000/svg">
<path d="M9.17647 0.5H15.2941V6.75H9.17647V0.5ZM0 19.25H6.11765V25.5H0V19.25ZM0 9.875H6.11765V16.125H0V9.875ZM0 0.5H6.11765V6.75H0V0.5ZM18.3529 0.5H24.4706V6.75H18.3529V0.5ZM10.7059 22.1562V25.5H13.9176L23.0635 16.1719L19.8212 12.8594L10.7059 22.1562ZM15.2941 13.0469V9.875H9.17647V16.125H12.2812L15.2941 13.0469ZM25.7706 12.3125L23.6141 10.1094C23.3082 9.79687 22.8341 9.79687 22.5282 10.1094L20.9071 11.7656L24.1494 15.0781L25.7706 13.4219C26.0765 13.1094 26.0765 12.625 25.7706 12.3125Z" fill="#5D5FEF"/>
</svg>
