<svg width="229" height="229" viewBox="0 0 229 229" fill="none" xmlns="http://www.w3.org/2000/svg">
<rect x="0.5" y="0.5" width="228" height="228" rx="4.5" fill="#2F3A4C" stroke="#1F2632"/>
<path d="M165.102 112.664C158.346 105.53 149.337 100.649 139.953 98.7714C135.824 97.6449 131.695 96.894 127.566 96.5185C138.076 84.1279 136.2 65.3542 123.813 54.841C111.426 44.3277 92.6582 46.2051 82.1482 58.5957C71.6382 70.9863 73.515 89.76 85.9018 100.273C88.1539 102.151 90.4061 103.653 92.6582 104.403V112.664L86.6525 107.032C81.3975 101.775 72.7643 101.775 67.1339 107.032C61.879 112.288 61.5036 120.549 66.7586 125.805L84.025 146.081C84.7757 151.338 86.6525 156.219 89.28 160.724C91.1568 164.104 93.7843 167.483 96.4118 170.111V177.245C96.4118 179.498 97.9132 181 100.165 181H151.214C153.091 181 154.967 179.123 154.967 177.245V167.483C162.099 158.847 165.853 147.958 165.853 137.07V115.292C166.228 113.79 165.853 113.039 165.102 112.664ZM82.5236 77.3694C82.5236 64.9788 92.6582 55.2165 105.045 55.5919C117.432 55.5919 127.191 65.7297 126.816 78.1203C126.816 84.8788 123.813 90.8864 118.558 95.0166V76.243C118.366 72.989 116.937 69.9316 114.564 67.6976C112.192 65.4636 109.054 64.2222 105.796 64.2278C99.0393 63.8523 93.0336 69.4844 93.0336 76.243V95.7676C86.6525 92.0128 82.8989 84.8788 82.5236 77.3694ZM158.721 136.694C159.096 146.456 155.718 155.843 149.337 163.353C148.586 164.104 147.836 164.855 147.836 165.981V173.866H104.294V168.609C104.294 167.483 103.544 166.357 102.793 165.606C100.165 163.353 97.9132 160.724 96.0364 157.345C93.7843 153.59 92.2828 149.085 91.5321 144.579C91.5321 143.828 91.1568 143.077 90.7814 142.326L72.7643 120.924C71.6382 119.798 70.8875 118.296 70.8875 116.419C70.8875 114.917 71.6382 113.039 72.7643 111.913C75.3918 109.66 79.1454 109.66 81.7729 111.913L92.6582 122.802V134.066L99.79 130.311V76.243C100.165 73.6147 102.417 71.3618 105.42 71.7373C108.048 71.7373 110.675 73.6147 110.675 76.243V119.422L118.182 120.924V103.653C118.558 103.277 118.933 103.277 119.309 102.902C121.936 102.902 124.564 103.277 127.191 103.653V122.802L133.197 123.928V104.403L137.701 105.53C139.578 105.905 141.455 106.656 143.331 107.407V126.181L149.337 127.307V110.036C152.715 111.537 155.718 113.79 158.346 116.419L158.721 136.694Z" fill="#5D5FEF"/>
</svg>
