<svg width="46" height="46" viewBox="0 0 46 46" fill="none" xmlns="http://www.w3.org/2000/svg">
<path d="M23 0C10.304 0 0 10.304 0 23C0 35.696 10.304 46 23 46C35.696 46 46 35.696 46 23C46 10.304 35.696 0 23 0ZM23 41.4C12.857 41.4 4.6 33.143 4.6 23C4.6 12.857 12.857 4.6 23 4.6C33.143 4.6 41.4 12.857 41.4 23C41.4 33.143 33.143 41.4 23 41.4ZM32.591 29.348L30.061 26.818C31.694 23.759 31.28 19.895 28.704 17.319C27.9574 16.5662 27.0687 15.9692 26.0896 15.5625C25.1104 15.1558 24.0602 14.9476 23 14.95C22.931 14.95 22.862 14.973 22.793 14.973L25.3 17.48L22.862 19.918L16.353 13.409L22.862 6.9L25.3 9.338L23.092 11.546C26.013 11.569 28.911 12.65 31.142 14.858C35.052 18.791 35.535 24.886 32.591 29.348ZM29.647 32.591L23.138 39.1L20.7 36.662L22.885 34.477C19.8793 34.4535 17.0037 33.2471 14.881 31.119C13.0089 29.2449 11.8402 26.7826 11.5721 24.1473C11.304 21.5119 11.9527 18.8647 13.409 16.652L15.939 19.182C14.306 22.241 14.72 26.105 17.296 28.681C18.906 30.291 21.045 31.073 23.184 31.004L20.7 28.52L23.138 26.082L29.647 32.591Z" fill="white"/>
</svg>
