<svg width="55" height="55" viewBox="0 0 55 55" fill="none" xmlns="http://www.w3.org/2000/svg">
<path d="M30.5556 55V48.8889H36.6667V55H30.5556ZM24.4444 48.8889V33.6111H30.5556V48.8889H24.4444ZM48.8889 39.7222V27.5H55V39.7222H48.8889ZM42.7778 27.5V21.3889H48.8889V27.5H42.7778ZM6.11112 33.6111V27.5H12.2222V33.6111H6.11112ZM1.05729e-05 27.5V21.3889H6.11112V27.5H1.05729e-05ZM27.5 6.11112V1.05729e-05H33.6111V6.11112H27.5ZM4.58334 13.75H13.75V4.58334H4.58334V13.75ZM1.05729e-05 15.2778V3.05556C1.05729e-05 2.18982 0.293344 1.46362 0.88001 0.876954C1.46668 0.290288 2.19186 -0.00202646 3.05556 1.05729e-05H15.2778C16.1435 1.05729e-05 16.8697 0.293344 17.4564 0.88001C18.0431 1.46668 18.3354 2.19186 18.3333 3.05556V15.2778C18.3333 16.1435 18.04 16.8697 17.4533 17.4564C16.8667 18.0431 16.1415 18.3354 15.2778 18.3333H3.05556C2.18982 18.3333 1.46362 18.04 0.876954 17.4533C0.290288 16.8667 -0.00202646 16.1415 1.05729e-05 15.2778ZM4.58334 50.4167H13.75V41.25H4.58334V50.4167ZM1.05729e-05 51.9444V39.7222C1.05729e-05 38.8565 0.293344 38.1303 0.88001 37.5436C1.46668 36.9569 2.19186 36.6646 3.05556 36.6667H15.2778C16.1435 36.6667 16.8697 36.96 17.4564 37.5467C18.0431 38.1333 18.3354 38.8585 18.3333 39.7222V51.9444C18.3333 52.8102 18.04 53.5364 17.4533 54.123C16.8667 54.7097 16.1415 55.002 15.2778 55H3.05556C2.18982 55 1.46362 54.7067 0.876954 54.12C0.290288 53.5333 -0.00202646 52.8081 1.05729e-05 51.9444ZM41.25 13.75H50.4167V4.58334H41.25V13.75ZM36.6667 15.2778V3.05556C36.6667 2.18982 36.96 1.46362 37.5467 0.876954C38.1333 0.290288 38.8585 -0.00202646 39.7222 1.05729e-05H51.9444C52.8102 1.05729e-05 53.5364 0.293344 54.123 0.88001C54.7097 1.46668 55.002 2.19186 55 3.05556V15.2778C55 16.1435 54.7067 16.8697 54.12 17.4564C53.5333 18.0431 52.8081 18.3354 51.9444 18.3333H39.7222C38.8565 18.3333 38.1303 18.04 37.5436 17.4533C36.9569 16.8667 36.6646 16.1415 36.6667 15.2778ZM42.7778 55V45.8333H36.6667V39.7222H48.8889V48.8889H55V55H42.7778ZM30.5556 33.6111V27.5H42.7778V33.6111H30.5556ZM18.3333 33.6111V27.5H12.2222V21.3889H30.5556V27.5H24.4444V33.6111H18.3333ZM21.3889 18.3333V6.11112H27.5V12.2222H33.6111V18.3333H21.3889ZM6.87501 11.4583V6.87501H11.4583V11.4583H6.87501ZM6.87501 48.125V43.5417H11.4583V48.125H6.87501ZM43.5417 11.4583V6.87501H48.125V11.4583H43.5417Z" fill="white"/>
</svg>
