<svg width="32" height="33" viewBox="0 0 32 33" fill="none" xmlns="http://www.w3.org/2000/svg">
<rect x="0.5" y="0.5" width="31" height="32" rx="4.5" fill="#E8DBF5" stroke="#583D72"/>
<path d="M18.2047 12.2H17.0047C17.0047 11.4043 16.6886 10.6413 16.126 10.0787C15.5634 9.51607 14.8003 9.2 14.0047 9.2C13.209 9.2 12.446 9.51607 11.8834 10.0787C11.3208 10.6413 11.0047 11.4043 11.0047 12.2H9.80469C9.80469 11.0861 10.2472 10.0178 11.0348 9.23015C11.8225 8.4425 12.8908 8 14.0047 8C15.1186 8 16.1869 8.4425 16.9745 9.23015C17.7622 10.0178 18.2047 11.0861 18.2047 12.2Z" fill="#583D72"/>
<path d="M21.2044 16.3984C20.8945 16.3995 20.5902 16.4823 20.3224 16.6384C20.1607 16.3819 19.9367 16.1703 19.6713 16.0235C19.4059 15.8766 19.1077 15.7992 18.8044 15.7984C18.4945 15.7995 18.1902 15.8823 17.9224 16.0384C17.7041 15.695 17.3759 15.4356 16.9912 15.3026C16.6066 15.1697 16.1882 15.171 15.8044 15.3064V12.1984C15.8044 11.721 15.6148 11.2632 15.2772 10.9256C14.9397 10.5881 14.4818 10.3984 14.0044 10.3984C13.527 10.3984 13.0692 10.5881 12.7316 10.9256C12.3941 11.2632 12.2044 11.721 12.2044 12.1984V18.8584L10.8664 17.9464C10.5597 17.718 10.1869 17.5958 9.80444 17.5984C9.44743 17.5976 9.09822 17.7029 8.80121 17.901C8.5042 18.0991 8.27281 18.381 8.13645 18.711C8.0001 19.0409 7.96495 19.404 8.03546 19.7539C8.10597 20.1039 8.27896 20.425 8.53244 20.6764L13.3324 25.0564C14.012 25.6647 14.8924 26.0002 15.8044 25.9984H18.8044C19.9183 25.9984 20.9866 25.5559 21.7743 24.7683C22.5619 23.9806 23.0044 22.9123 23.0044 21.7984V18.1984C23.0044 17.721 22.8148 17.2632 22.4772 16.9256C22.1397 16.5881 21.6818 16.3984 21.2044 16.3984V16.3984ZM21.8044 21.7984C21.8044 22.5941 21.4884 23.3571 20.9258 23.9197C20.3631 24.4824 19.6001 24.7984 18.8044 24.7984H15.8044C15.198 24.8058 14.6095 24.5925 14.1484 24.1984L9.37844 19.8184C9.2676 19.7067 9.20511 19.5558 9.20444 19.3984C9.20444 19.287 9.23547 19.1778 9.29405 19.083C9.35263 18.9882 9.43645 18.9116 9.53611 18.8618C9.63578 18.8119 9.74735 18.7908 9.85833 18.8009C9.9693 18.8109 10.0753 18.8516 10.1644 18.9184L13.4044 21.1384V12.1984C13.4044 12.0393 13.4677 11.8867 13.5802 11.7742C13.6927 11.6617 13.8453 11.5984 14.0044 11.5984C14.1636 11.5984 14.3162 11.6617 14.4287 11.7742C14.5412 11.8867 14.6044 12.0393 14.6044 12.1984V18.7984H15.8044V16.9984C15.8044 16.8393 15.8677 16.6867 15.9802 16.5742C16.0927 16.4616 16.2453 16.3984 16.4044 16.3984C16.5636 16.3984 16.7162 16.4616 16.8287 16.5742C16.9412 16.6867 17.0044 16.8393 17.0044 16.9984V18.7984H18.2044V17.5984C18.2044 17.4393 18.2677 17.2867 18.3802 17.1742C18.4927 17.0616 18.6453 16.9984 18.8044 16.9984C18.9636 16.9984 19.1162 17.0616 19.2287 17.1742C19.3412 17.2867 19.4044 17.4393 19.4044 17.5984V18.7984H20.6044V18.1984C20.6044 18.0393 20.6676 17.8867 20.7802 17.7742C20.8927 17.6616 21.0453 17.5984 21.2044 17.5984C21.3636 17.5984 21.5162 17.6616 21.6287 17.7742C21.7412 17.8867 21.8044 18.0393 21.8044 18.1984V21.7984Z" fill="#583D72"/>
</svg>
