<svg width="55" height="42" viewBox="0 0 55 42" fill="none" xmlns="http://www.w3.org/2000/svg">
<path d="M20.1495 27.0657C21.1717 27.4064 22.2731 27.43 23.309 27.1336C24.3449 26.8371 25.267 26.2344 25.9543 25.4046V41.2573L7.63281 34.3516V22.8945L20.1495 27.0657Z" fill="white"/>
<path fill-rule="evenodd" clip-rule="evenodd" d="M47.3301 34.3528L29.0086 41.2585V25.4058C29.6959 26.2357 30.618 26.8384 31.6539 27.1348C32.6898 27.4312 33.7912 27.4076 34.8134 27.067L47.3301 22.8958V34.3528ZM27.981 0.0839365C27.6576 -0.0279788 27.3059 -0.0279788 26.9825 0.0839365L7.13724 6.95451L7.10213 6.9652C6.83516 7.06416 6.60134 7.23609 6.42728 7.4614L0.335374 15.0771C0.181506 15.2691 0.0763214 15.4954 0.0287763 15.7368C-0.0187688 15.9782 -0.00726555 16.2275 0.0623073 16.4636C0.13188 16.6996 0.257461 16.9153 0.428355 17.0923C0.599249 17.2693 0.810393 17.4024 1.04381 17.4802L21.6555 24.3508C21.9677 24.4545 22.305 24.4547 22.6172 24.3513C22.9295 24.2478 23.2 24.0463 23.3884 23.7767L27.4818 17.9291L31.5736 23.7767C31.7621 24.0466 32.0329 24.2484 32.3455 24.3518C32.658 24.4553 32.9957 24.4549 33.308 24.3508L53.9197 17.4802C54.1533 17.4026 54.3646 17.2696 54.5356 17.0927C54.7067 16.9157 54.8325 16.7 54.9022 16.464C54.9719 16.228 54.9836 15.9786 54.9361 15.7371C54.8887 15.4956 54.7835 15.2692 54.6297 15.0771L48.5378 7.4614C48.3556 7.22586 48.1082 7.04906 47.8263 6.95298L27.981 0.0839365ZM27.4818 13.6526L42.6627 8.39733L27.4818 3.14211L12.3009 8.39733L27.4818 13.6526Z" fill="white"/>
</svg>
