<svg width="90" height="90" viewBox="0 0 90 90" fill="none" xmlns="http://www.w3.org/2000/svg">
<path d="M45 85C50.2539 85.0068 55.4573 83.9752 60.3112 81.9646C65.1651 79.954 69.5738 77.0039 73.284 73.284C77.0039 69.5738 79.954 65.1651 81.9646 60.3112C83.9752 55.4573 85.0068 50.2539 85 45C85.0067 39.7462 83.9751 34.5428 81.9644 29.6889C79.9538 24.835 77.0038 20.4262 73.284 16.716C69.5738 12.9961 65.1651 10.046 60.3112 8.0354C55.4573 6.02478 50.2539 4.99323 45 5.00003C39.7462 4.99334 34.5428 6.02494 29.6889 8.03556C24.835 10.0462 20.4262 12.9962 16.716 16.716C12.9962 20.4262 10.0462 24.835 8.03556 29.6889C6.02494 34.5428 4.99334 39.7462 5.00003 45C4.99323 50.2539 6.02478 55.4573 8.0354 60.3112C10.046 65.1651 12.9961 69.5738 16.716 73.284C20.4262 77.0038 24.835 79.9538 29.6889 81.9644C34.5428 83.9751 39.7462 85.0067 45 85Z" stroke="#40B12D" stroke-width="9" stroke-linejoin="round"/>
<path d="M29 45L41 57L65 33" stroke="#40B12D" stroke-width="9" stroke-linecap="round" stroke-linejoin="round"/>
</svg>
