<svg width="55" height="50" viewBox="0 0 55 50" fill="none" xmlns="http://www.w3.org/2000/svg">
<path d="M5.5 50C3.9875 50 2.69317 49.4565 1.617 48.3694C0.540833 47.2824 0.00183333 45.9741 0 44.4444V5.55555C0 4.02778 0.539 2.72037 1.617 1.63333C2.695 0.546296 3.98933 0.00185185 5.5 0H49.5C51.0125 0 52.3077 0.544445 53.3857 1.63333C54.4637 2.72222 55.0018 4.02963 55 5.55555V44.4444C55 45.9722 54.4619 47.2806 53.3857 48.3694C52.3096 49.4583 51.0143 50.0018 49.5 50H5.5ZM5.5 44.4444H49.5V5.55555H5.5V44.4444ZM8.25 38.8889H22V33.3333H8.25V38.8889ZM34.5125 33.3333L48.125 19.5833L44.2062 15.625L34.5125 25.4861L30.5937 21.5278L26.7437 25.4861L34.5125 33.3333ZM8.25 27.7778H22V22.2222H8.25V27.7778ZM8.25 16.6667H22V11.1111H8.25V16.6667Z" fill="white"/>
</svg>
