<svg width="14" height="17" viewBox="0 0 14 17" fill="none" xmlns="http://www.w3.org/2000/svg">
<path d="M5.46763 12.7511H10.3248V13.9654H5.46763V12.7511ZM3.03906 12.7511H4.25335V13.9654H3.03906V12.7511ZM5.46763 9.7154H10.3248V10.9297H5.46763V9.7154ZM3.03906 9.7154H4.25335V10.9297H3.03906V9.7154ZM5.46763 6.67969H10.3248V7.89397H5.46763V6.67969ZM3.03906 6.67969H4.25335V7.89397H3.03906V6.67969Z" fill="white"/>
<path d="M12.1429 1.82143H10.3214V1.21429C10.3214 0.892237 10.1935 0.583379 9.96577 0.355656C9.73805 0.127933 9.42919 0 9.10714 0H4.25C3.92795 0 3.61909 0.127933 3.39137 0.355656C3.16365 0.583379 3.03571 0.892237 3.03571 1.21429V1.82143H1.21429C0.892237 1.82143 0.583379 1.94936 0.355656 2.17708C0.127933 2.40481 0 2.71367 0 3.03571V15.7857C0 16.1078 0.127933 16.4166 0.355656 16.6443C0.583379 16.8721 0.892237 17 1.21429 17H12.1429C12.4649 17 12.7738 16.8721 13.0015 16.6443C13.2292 16.4166 13.3571 16.1078 13.3571 15.7857V3.03571C13.3571 2.71367 13.2292 2.40481 13.0015 2.17708C12.7738 1.94936 12.4649 1.82143 12.1429 1.82143ZM4.25 1.21429H9.10714V3.64286H4.25V1.21429ZM12.1429 15.7857H1.21429V3.03571H3.03571V4.85714H10.3214V3.03571H12.1429V15.7857Z" fill="white"/>
</svg>
