<svg width="22" height="20" viewBox="0 0 22 20" fill="none" xmlns="http://www.w3.org/2000/svg">
<path d="M13.5225 9.50001L5.00781 8V19.0839C5.00791 19.2043 5.03173 19.3235 5.0779 19.4347C5.12408 19.5459 5.1917 19.647 5.27692 19.732C5.36213 19.8171 5.46327 19.8846 5.57456 19.9305C5.68584 19.9765 5.8051 20.0001 5.92551 20H20.6179C20.7384 20.0003 20.8578 19.9769 20.9693 19.931C21.0808 19.8851 21.1821 19.8177 21.2675 19.7326C21.3528 19.6475 21.4206 19.5464 21.4669 19.4351C21.5131 19.3238 21.537 19.2044 21.5371 19.0839V15L13.5225 9.50001Z" fill="#185C37"/>
<path d="M13.5225 3.22965e-07H5.92551C5.8051 -0.000100737 5.68584 0.0235162 5.57456 0.0695027C5.46327 0.115489 5.36213 0.182945 5.27692 0.268018C5.1917 0.353091 5.12408 0.454115 5.0779 0.565323C5.03173 0.676531 5.00791 0.795745 5.00781 0.916157V5.00002L13.5225 10L18.0309 11.5L21.5371 10V5.00002L13.5225 3.22965e-07Z" fill="#21A366"/>
<path d="M5.00781 5H13.5225V10H5.00781V5Z" fill="#107C41"/>
<path opacity="0.1" d="M11.1017 4H5.00781V16.5H11.1017C11.3445 16.4988 11.5771 16.402 11.749 16.2305C11.9209 16.059 12.0183 15.8267 12.0201 15.5839V4.91616C12.0183 4.67334 11.9209 4.44102 11.749 4.26953C11.5771 4.09805 11.3445 4.00121 11.1017 4Z" fill="black"/>
<path opacity="0.2" d="M10.6009 4.5H5.00781V17H10.6009C10.8437 16.9988 11.0763 16.902 11.2482 16.7305C11.4201 16.559 11.5176 16.3267 11.5194 16.0839V5.41616C11.5176 5.17334 11.4201 4.94102 11.2482 4.76953C11.0763 4.59805 10.8437 4.50121 10.6009 4.5Z" fill="black"/>
<path opacity="0.2" d="M10.6009 4.5H5.00781V16H10.6009C10.8437 15.9988 11.0763 15.902 11.2482 15.7305C11.4201 15.559 11.5176 15.3267 11.5194 15.0839V5.41616C11.5176 5.17334 11.4201 4.94102 11.2482 4.76953C11.0763 4.59805 10.8437 4.50121 10.6009 4.5Z" fill="black"/>
<path opacity="0.2" d="M10.1001 4.5H5.00781V16H10.1001C10.343 15.9988 10.5755 15.902 10.7474 15.7305C10.9194 15.559 11.0168 15.3267 11.0186 15.0839V5.41616C11.0168 5.17334 10.9194 4.94102 10.7474 4.76953C10.5755 4.59805 10.343 4.50121 10.1001 4.5Z" fill="black"/>
<path d="M0.918465 4.5H10.1016C10.3448 4.4998 10.5782 4.59618 10.7504 4.76797C10.9227 4.93976 11.0196 5.1729 11.02 5.41616V14.5839C11.0196 14.8271 10.9227 15.0603 10.7504 15.2321C10.5782 15.4039 10.3448 15.5002 10.1016 15.5H0.918465C0.797988 15.5002 0.678652 15.4767 0.567278 15.4308C0.455903 15.3848 0.354675 15.3174 0.269377 15.2323C0.18408 15.1472 0.116386 15.0462 0.0701646 14.9349C0.0239434 14.8236 0.000100902 14.7044 0 14.5839V5.41616C0.000100902 5.29568 0.0239434 5.1764 0.0701646 5.06515C0.116386 4.95389 0.18408 4.85283 0.269377 4.76775C0.354675 4.68266 0.455903 4.61522 0.567278 4.56928C0.678652 4.52334 0.797988 4.4998 0.918465 4.5Z" fill="url(#paint0_linear_838_27330)"/>
<path d="M2.84375 12.978L4.7753 9.99031L3.00606 7.01953H4.42683L5.39222 8.92185C5.48145 9.10185 5.54607 9.23569 5.5753 9.32492H5.58838C5.65145 9.18031 5.71838 9.04108 5.78838 8.90492L6.82069 7.02261H8.12838L6.31376 9.97646L8.17454 12.9803H6.78299L5.66761 10.8949C5.61582 10.8053 5.57181 10.7113 5.53607 10.6142H5.51761C5.48508 10.7088 5.44172 10.7994 5.38838 10.8842L4.23991 12.978H2.84375Z" fill="white"/>
<path d="M20.6196 1.29132e-06H13.5234V5.00002H21.5381V0.916158C21.538 0.795681 21.5141 0.676405 21.4679 0.565147C21.4217 0.453888 21.354 0.35283 21.2687 0.267746C21.1834 0.182663 21.0822 0.115224 20.9708 0.0692827C20.8594 0.0233414 20.7401 -0.000200894 20.6196 1.29132e-06Z" fill="#33C481"/>
<path d="M13.5234 10H21.5381V15H13.5234V10Z" fill="#107C41"/>
<defs>
<linearGradient id="paint0_linear_838_27330" x1="1.91847" y1="3.78" x2="9.10157" y2="16.22" gradientUnits="userSpaceOnUse">
<stop stop-color="#18884F"/>
<stop offset="0.5" stop-color="#117E43"/>
<stop offset="1" stop-color="#0B6631"/>
</linearGradient>
</defs>
</svg>
