<svg width="32" height="33" viewBox="0 0 32 33" fill="none" xmlns="http://www.w3.org/2000/svg">
<rect x="0.5" y="0.5" width="31" height="32" rx="4.5" fill="#E8DBF5" stroke="#583D72"/>
<path d="M8.34956 7.79297C8.07866 7.79297 7.81885 7.90058 7.6273 8.09214C7.43574 8.28369 7.32812 8.5435 7.32812 8.8144V12.9001H12.4353V7.79297H8.34956ZM11.1585 11.6233H8.60491V9.06976H11.1585V11.6233Z" fill="#583D72"/>
<path d="M7.32812 24.6443C7.32812 24.9152 7.43574 25.175 7.6273 25.3666C7.81885 25.5581 8.07866 25.6657 8.34956 25.6657H12.4353V20.5586H7.32812V24.6443ZM8.60491 21.8354H11.1585V24.389H8.60491V21.8354Z" fill="#583D72"/>
<path d="M20.0938 25.6657H24.1795C24.4504 25.6657 24.7102 25.5581 24.9017 25.3666C25.0933 25.175 25.2009 24.9152 25.2009 24.6443V20.5586H20.0938V25.6657ZM21.3705 21.8354H23.9241V24.389H21.3705V21.8354Z" fill="#583D72"/>
<path d="M24.1795 7.79297H20.0938V12.9001H25.2009V8.8144C25.2009 8.5435 25.0933 8.28369 24.9017 8.09214C24.7102 7.90058 24.4504 7.79297 24.1795 7.79297V7.79297ZM23.9241 11.6233H21.3705V9.06976H23.9241V11.6233Z" fill="#583D72"/>
<path d="M17.5458 11.6244V10.3477H14.9922V12.9012H16.269V11.6244H17.5458Z" fill="#583D72"/>
<path d="M12.4375 12.9023H13.7143V14.1791H12.4375V12.9023Z" fill="#583D72"/>
<path d="M13.7109 14.1758H16.2645V15.4526H13.7109V14.1758Z" fill="#583D72"/>
<path d="M17.5413 9.06976V10.3465H18.8181V7.79297H13.7109V10.3465H14.9877V9.06976H17.5413Z" fill="#583D72"/>
<path d="M7.32812 14.1758H8.60491V16.7294H7.32812V14.1758Z" fill="#583D72"/>
<path d="M12.4353 15.4526V16.7294H11.1585V14.1758H9.8817V16.7294H8.60491V18.0061H7.32812V19.2829H9.8817V18.0061H11.1585V19.2829H12.4353V18.0061H13.7121V15.4526H12.4353Z" fill="#583D72"/>
<path d="M17.5424 15.4515H18.8192V16.7282H20.096V15.4515H21.3728V14.1747H18.8192V11.6211H17.5424V12.8979H16.2656V14.1747H17.5424V15.4515Z" fill="#583D72"/>
<path d="M16.2645 24.3901H13.7109V25.6669H18.8181V24.3901H17.5413V23.1133H16.2645V24.3901Z" fill="#583D72"/>
<path d="M18.8226 18.0067V16.7299H17.5458V15.4531H16.269V16.7299H14.9922V18.0067H16.269V19.2835H17.5458V18.0067H18.8226Z" fill="#583D72"/>
<path d="M18.8226 18.0067V16.7299H17.5458V15.4531H16.269V16.7299H14.9922V18.0067H16.269V19.2835H17.5458V18.0067H18.8226Z" fill="#583D72"/>
<path d="M23.9297 18.0078H25.2065V19.2846H23.9297V18.0078Z" fill="#583D72"/>
<path d="M18.8203 18.0078H22.6507V19.2846H18.8203V18.0078Z" fill="#583D72"/>
<path d="M23.9286 14.1758H22.6518V15.4526H21.375V16.7294H22.6518V18.0061H23.9286V16.7294H25.2054V15.4526H23.9286V14.1758Z" fill="#583D72"/>
<path d="M17.5391 19.2852H18.8158V23.1155H17.5391V19.2852Z" fill="#583D72"/>
<path d="M13.7109 23.115H14.9877V21.8382H16.2645V20.5614H14.9877V18.0078H13.7109V23.115Z" fill="#583D72"/>
<path d="M13.7109 23.115H14.9877V21.8382H16.2645V20.5614H14.9877V18.0078H13.7109V23.115Z" fill="#583D72"/>
</svg>
