<svg width="47" height="51" viewBox="0 0 47 51" fill="none" xmlns="http://www.w3.org/2000/svg">
<path d="M39.6 16.5677V4.35C39.6 3.72674 39.3524 3.12901 38.9117 2.6883C38.471 2.24759 37.8733 2 37.25 2H4.35C3.72674 2 3.12901 2.24759 2.6883 2.6883C2.24759 3.12901 2 3.72674 2 4.35V46.65C2 47.2733 2.24759 47.871 2.6883 48.3117C3.12901 48.7524 3.72674 49 4.35 49H16.1" stroke="white" stroke-width="4" stroke-linecap="round" stroke-linejoin="round"/>
<path d="M11.3984 13.75H26.6734M11.3984 21.975H17.2734" stroke="white" stroke-width="4" stroke-linecap="round"/>
<path d="M20.8008 37.25C20.8008 43.7393 26.0614 49 32.5508 49C39.0401 49 44.3008 43.7393 44.3008 37.25C44.3008 30.7607 39.0401 25.5 32.5508 25.5C26.0614 25.5 20.8008 30.7607 20.8008 37.25Z" stroke="white" stroke-width="4" stroke-linecap="round" stroke-linejoin="round"/>
<path d="M32.5508 39.6016V43.1266" stroke="white" stroke-width="4" stroke-linecap="round"/>
<path d="M32.5492 34.8992C33.8471 34.8992 34.8992 33.8471 34.8992 32.5492C34.8992 31.2513 33.8471 30.1992 32.5492 30.1992C31.2513 30.1992 30.1992 31.2513 30.1992 32.5492C30.1992 33.8471 31.2513 34.8992 32.5492 34.8992Z" fill="white"/>
</svg>
