<svg width="29" height="29" viewBox="0 0 29 29" fill="none" xmlns="http://www.w3.org/2000/svg">
<path d="M22.6125 0.0742188L28.3754 6.08147V28.9256H6.84766V29.0001H28.4489V6.15707L22.6125 0.0742188Z" fill="#909090"/>
<path d="M22.5404 0H6.77344V28.9259H28.3747V6.08286L22.5404 0Z" fill="#F4F4F4"/>
<path d="M6.61833 1.55469H0V8.62563H20.8182V1.55469H6.61833Z" fill="#7A7B7C"/>
<path d="M20.9311 8.50581H0.136719V1.42969H20.9311V8.50581Z" fill="#DD2025"/>
<path d="M7.03339 2.62506H5.67969V7.59657H6.74442V5.91972L6.97953 5.93319C7.20798 5.92926 7.43429 5.88833 7.64965 5.81201C7.83847 5.74706 8.01217 5.64453 8.16027 5.51061C8.31096 5.38303 8.42978 5.22201 8.50724 5.04039C8.61112 4.73847 8.64822 4.4176 8.61599 4.09994C8.60952 3.87302 8.56974 3.64828 8.49791 3.43293C8.43253 3.27747 8.3355 3.13733 8.213 3.02142C8.09049 2.90552 7.9452 2.81639 7.78637 2.7597C7.64904 2.70999 7.50715 2.67391 7.36275 2.65199C7.25341 2.63512 7.14299 2.62612 7.03235 2.62506M6.8366 5.00103H6.74442V3.46814H6.94432C7.03254 3.46178 7.12107 3.47532 7.20335 3.50777C7.28564 3.54022 7.35958 3.59075 7.41972 3.65561C7.54434 3.82238 7.61091 4.02537 7.60926 4.23355C7.60926 4.48834 7.60926 4.71931 7.37932 4.88192C7.21368 4.97303 7.02513 5.01508 6.8366 5.00103ZM10.6388 2.61159C10.5238 2.61159 10.4119 2.61988 10.3332 2.62299L10.0867 2.6292H9.27886V7.60072H10.2297C10.593 7.61068 10.9548 7.54909 11.2944 7.41946C11.5677 7.31104 11.8098 7.13627 11.9987 6.91092C12.1824 6.68353 12.3142 6.41878 12.385 6.13515C12.4664 5.81394 12.5061 5.48359 12.5031 5.15224C12.5232 4.7609 12.4929 4.3686 12.413 3.98497C12.3371 3.7026 12.1951 3.44235 11.9987 3.22578C11.8446 3.05091 11.6559 2.90985 11.4446 2.81149C11.2631 2.72751 11.0722 2.66561 10.876 2.62713C10.7979 2.61424 10.7189 2.60835 10.6398 2.60952M10.4513 6.6872H10.3477V3.51372H10.3612C10.5747 3.48915 10.7908 3.52768 10.9826 3.62454C11.1231 3.73674 11.2376 3.87809 11.3182 4.03883C11.4052 4.208 11.4553 4.39368 11.4653 4.58363C11.4746 4.81149 11.4653 4.99792 11.4653 5.15224C11.4695 5.33001 11.4581 5.50781 11.4311 5.68357C11.3992 5.86403 11.3402 6.03862 11.2561 6.20144C11.1609 6.35282 11.0323 6.48037 10.8801 6.5743C10.7523 6.65695 10.601 6.69551 10.4492 6.68409M15.7108 2.6292H13.1939V7.60072H14.2587V5.62868H15.6051V4.70481H14.2587V3.55307H15.7087V2.6292" fill="#464648"/>
<path d="M20.2148 18.9059C20.2148 18.9059 23.5168 18.3072 23.5168 19.4351C23.5168 20.5631 21.4712 20.1042 20.2148 18.9059ZM17.7736 18.9918C17.249 19.1078 16.7378 19.2775 16.248 19.4983L16.6623 18.5662C17.0766 17.634 17.5064 16.3632 17.5064 16.3632C18.0008 17.1952 18.576 17.9765 19.2236 18.6956C18.7352 18.7685 18.2511 18.868 17.7736 18.9939V18.9918ZM16.4665 12.2596C16.4665 11.2767 16.7845 11.0084 17.032 11.0084C17.2796 11.0084 17.5582 11.1275 17.5675 11.981C17.4869 12.8391 17.3072 13.6851 17.032 14.5019C16.6552 13.8161 16.4601 13.0452 16.4655 12.2627L16.4665 12.2596ZM11.6514 23.1513C10.6385 22.5454 13.7757 20.6801 14.3443 20.62C14.3412 20.6211 12.712 23.7852 11.6514 23.1513ZM24.481 19.5687C24.4707 19.4652 24.3775 18.3186 22.3371 18.3673C21.4866 18.3536 20.6365 18.4135 19.7964 18.5465C18.9826 17.7266 18.2818 16.8018 17.7125 15.7966C18.0712 14.7603 18.2882 13.6803 18.3578 12.5858C18.3277 11.343 18.0305 10.6304 17.0776 10.6407C16.1247 10.6511 15.9859 11.4849 16.1113 12.7257C16.234 13.5595 16.4656 14.3736 16.8 15.1472C16.8 15.1472 16.3598 16.5175 15.7778 17.8805C15.1957 19.2435 14.798 19.9582 14.798 19.9582C13.7858 20.2877 12.8329 20.7772 11.9756 21.4082C11.1222 22.2026 10.7752 22.8127 11.2247 23.4227C11.6121 23.9489 12.9678 24.068 14.1796 22.4802C14.8235 21.6601 15.4117 20.7978 15.9404 19.8991C15.9404 19.8991 17.7881 19.3927 18.363 19.2539C18.9378 19.1151 19.6328 19.0053 19.6328 19.0053C19.6328 19.0053 21.32 20.7029 22.9471 20.6428C24.5742 20.5827 24.4955 19.6702 24.4852 19.5708" fill="#DD2025"/>
<path d="M22.4609 0.078125V6.16098H28.2952L22.4609 0.078125Z" fill="#909090"/>
<path d="M22.543 0V6.08286H28.3772L22.543 0Z" fill="#F4F4F4"/>
<path d="M6.94745 2.54303H5.59375V7.51454H6.66263V5.83873L6.89877 5.85219C7.12723 5.84826 7.35353 5.80734 7.56889 5.73101C7.7577 5.66604 7.93139 5.56352 8.07951 5.42961C8.22907 5.30169 8.3468 5.1407 8.42337 4.95939C8.52725 4.65747 8.56435 4.3366 8.53212 4.01894C8.52565 3.79202 8.48587 3.56729 8.41405 3.35193C8.34867 3.19648 8.25164 3.05634 8.12913 2.94043C8.00663 2.82452 7.86134 2.73539 7.7025 2.67871C7.56454 2.62851 7.42195 2.59208 7.27681 2.56996C7.16747 2.55308 7.05705 2.54408 6.94642 2.54303M6.75066 4.919H6.65848V3.38611H6.85941C6.94764 3.37975 7.03616 3.39329 7.11845 3.42574C7.20074 3.45819 7.27468 3.50871 7.33482 3.57358C7.45943 3.74035 7.52601 3.94334 7.52435 4.15152C7.52435 4.40631 7.52436 4.63728 7.29442 4.79989C7.12877 4.89099 6.94023 4.93201 6.7517 4.91796M10.5528 2.52956C10.4379 2.52956 10.326 2.53785 10.2473 2.54095L10.0039 2.54717H9.19603V7.51868H10.1468C10.5102 7.52864 10.872 7.46706 11.2116 7.33743C11.4849 7.22901 11.727 7.05424 11.9159 6.82889C12.0996 6.6015 12.2314 6.33675 12.3022 6.05312C12.3836 5.73191 12.4232 5.40156 12.4203 5.07021C12.4404 4.67887 12.4101 4.28657 12.3302 3.90294C12.2543 3.62056 12.1123 3.36032 11.9159 3.14375C11.7617 2.96888 11.5731 2.82782 11.3617 2.72946C11.1803 2.64548 10.9894 2.58358 10.7931 2.5451C10.7151 2.53221 10.6361 2.52631 10.557 2.52749M10.3685 6.60517H10.2649V3.43168H10.2784C10.4919 3.40712 10.7079 3.44564 10.8998 3.54251C11.0403 3.65471 11.1548 3.79605 11.2354 3.9568C11.3223 4.12597 11.3725 4.31165 11.3825 4.5016C11.3918 4.72946 11.3825 4.91589 11.3825 5.07021C11.3867 5.24798 11.3752 5.42578 11.3483 5.60154C11.3164 5.782 11.2573 5.95659 11.1732 6.11941C11.078 6.27079 10.9494 6.39834 10.7973 6.49227C10.6695 6.57492 10.5182 6.61348 10.3664 6.60206M15.6248 2.54717H13.108V7.51868H14.1727V5.54665H15.5192V4.62278H14.1727V3.47104H15.6227V2.54717" fill="white"/>
</svg>
