<svg width="44" height="44" viewBox="0 0 44 44" fill="none" xmlns="http://www.w3.org/2000/svg">
<circle cx="22" cy="22" r="22" fill="#54637C"/>
<path d="M22.4286 10C19.3596 10 16.4164 11.2116 14.2463 13.3683C12.0763 15.5249 10.8571 18.45 10.8571 21.5H7L12.0014 26.4705L12.0914 26.6494L17.2857 21.5H13.4286C13.4286 16.555 17.4529 12.5556 22.4286 12.5556C27.4043 12.5556 31.4286 16.555 31.4286 21.5C31.4286 26.445 27.4043 30.4444 22.4286 30.4444C19.9471 30.4444 17.6971 29.435 16.0771 27.8122L14.2514 29.6267C15.323 30.6975 16.5972 31.5468 18.0007 32.1258C19.4041 32.7048 20.909 33.0019 22.4286 33C25.4975 33 28.4407 31.7884 30.6108 29.6317C32.7809 27.475 34 24.55 34 21.5C34 18.45 32.7809 15.5249 30.6108 13.3683C28.4407 11.2116 25.4975 10 22.4286 10ZM21.1429 16.3889V22.7778L26.6457 26.0233L27.5714 24.4772L23.0714 21.8194V16.3889H21.1429Z" fill="white"/>
</svg>
