<svg width="57" height="57" viewBox="0 0 57 57" fill="none" xmlns="http://www.w3.org/2000/svg">
<circle cx="28.5" cy="28.5" r="28.5" fill="#54637C"/>
<path d="M25.8681 39.8328V31.2891H32.4539V39.8328C32.4539 40.7726 33.1948 41.5415 34.1003 41.5415H39.0397C39.9453 41.5415 40.6862 40.7726 40.6862 39.8328V27.8716H43.4852C44.2425 27.8716 44.6048 26.8977 44.0285 26.385L30.2641 13.5182C29.6384 12.9373 28.6835 12.9373 28.0578 13.5182L14.2935 26.385C13.7337 26.8977 14.0794 27.8716 14.8368 27.8716H17.6358V39.8328C17.6358 40.7726 18.3767 41.5415 19.2822 41.5415H24.2216C25.1271 41.5415 25.8681 40.7726 25.8681 39.8328Z" fill="#FFFFFF"/>
</svg>
