<svg width="57" height="57" viewBox="0 0 57 57" fill="none" xmlns="http://www.w3.org/2000/svg">
<circle cx="28.5" cy="28.5" r="28.5" fill="#54637C"/>
<path d="M27.9801 21.3785C28.3756 21.0133 28.5316 20.4395 28.3255 19.9294C28.1974 19.6222 28.0581 19.3208 27.9022 19.031L27.7295 18.718C27.5624 18.4282 27.3785 18.1442 27.1836 17.8718C26.8661 17.4313 26.3091 17.2864 25.8077 17.4603L24.2369 17.9993C23.6409 17.4893 22.9557 17.0719 22.2205 16.7879L21.8807 15.1071C21.7748 14.568 21.3738 14.1391 20.8502 14.0753C20.4825 14.0232 20.1093 14 19.7305 14H19.6916C19.3128 14 18.9396 14.0232 18.5719 14.0696C18.0483 14.1333 17.6473 14.568 17.5414 15.1013L17.2016 16.7879C16.4608 17.0777 15.7812 17.4893 15.1852 17.9993L13.6088 17.4661C13.1075 17.2922 12.5505 17.4371 12.2329 17.8776C12.038 18.15 11.8542 18.434 11.6815 18.7238L11.5144 19.031C11.3584 19.3208 11.2192 19.6222 11.091 19.9352C10.8849 20.4395 11.0409 21.0133 11.4364 21.3843L12.673 22.5319C12.6117 22.9202 12.5783 23.326 12.5783 23.7375C12.5783 24.149 12.6117 24.5547 12.673 24.9489L11.4364 26.0965C11.0409 26.4617 10.8849 27.0355 11.091 27.5455C11.2192 27.8527 11.3584 28.1541 11.5144 28.4497L11.6815 28.7511C11.8486 29.0467 12.0324 29.325 12.2329 29.5974C12.5505 30.0379 13.1075 30.1828 13.6088 30.0089L15.1796 29.4699C15.7756 29.9799 16.4608 30.3972 17.1961 30.6812L17.5359 32.3679C17.6417 32.907 18.0428 33.3359 18.5664 33.3996C18.9396 33.446 19.3183 33.4692 19.7027 33.4692C20.087 33.4692 20.4658 33.446 20.839 33.3996C21.3626 33.3359 21.7637 32.9012 21.8695 32.3679L22.2093 30.6812C22.9502 30.3914 23.6297 29.9799 24.2258 29.4699L25.7966 30.0089C26.2979 30.1828 26.8549 30.0379 27.1724 29.5974C27.3674 29.325 27.5512 29.0467 27.7183 28.7511L27.891 28.4381C28.047 28.1483 28.1862 27.8469 28.3144 27.5397C28.5205 27.0355 28.3645 26.4617 27.969 26.0907L26.7324 24.9431C26.7937 24.5489 26.8271 24.1432 26.8271 23.7317C26.8271 23.3202 26.7937 22.9144 26.7324 22.5203L27.969 21.3727L27.9801 21.3785ZM17.0345 23.7375C17.0345 22.9996 17.3162 22.292 17.8177 21.7702C18.3191 21.2485 18.9991 20.9553 19.7083 20.9553C20.4174 20.9553 21.0975 21.2485 21.5989 21.7702C22.1003 22.292 22.382 22.9996 22.382 23.7375C22.382 24.4754 22.1003 25.183 21.5989 25.7048C21.0975 26.2265 20.4174 26.5196 19.7083 26.5196C18.9991 26.5196 18.3191 26.2265 17.8177 25.7048C17.3162 25.183 17.0345 24.4754 17.0345 23.7375ZM38.909 42.5459C39.26 42.9574 39.8114 43.1197 40.3016 42.9053C40.5968 42.772 40.8865 42.6271 41.165 42.4648L41.4658 42.2851C41.7443 42.1112 42.0173 41.9199 42.2791 41.7171C42.7024 41.3867 42.8417 40.8071 42.6745 40.2854L42.1565 38.6509C42.6467 38.0307 43.0478 37.3178 43.3207 36.5527L44.9416 36.1992C45.4597 36.089 45.8719 35.6717 45.9332 35.1269C45.9777 34.7385 46 34.3444 46 33.9445C46 33.5445 45.9777 33.1504 45.9332 32.7621C45.8719 32.2172 45.4541 31.7999 44.9416 31.6898L43.3207 31.3304C43.0422 30.5595 42.6467 29.8524 42.1565 29.2322L42.6745 27.5977C42.8417 27.0761 42.7024 26.4964 42.2791 26.1661C42.0173 25.9632 41.7443 25.7719 41.4658 25.5922L41.1706 25.4184C40.8921 25.2561 40.6024 25.1112 40.3016 24.9779C39.817 24.7634 39.2655 24.9257 38.909 25.3372L37.8061 26.624C37.4273 26.5602 37.0374 26.5254 36.6419 26.5254C36.2464 26.5254 35.8565 26.5602 35.4777 26.624L34.3748 25.3372C34.0239 24.9257 33.4724 24.7634 32.9823 24.9779C32.687 25.1112 32.3974 25.2561 32.1133 25.4184L31.8236 25.5922C31.5395 25.7661 31.2722 25.9574 31.0104 26.1661C30.587 26.4964 30.4478 27.0761 30.6149 27.5977L31.1329 29.2322C30.6427 29.8524 30.2417 30.5653 29.9687 31.3304L28.3478 31.6782C27.8297 31.7883 27.4175 32.2056 27.3563 32.7505C27.3117 33.1388 27.2894 33.5329 27.2894 33.9329C27.2894 34.3328 27.3117 34.7269 27.3563 35.1153C27.4175 35.6601 27.8353 36.0774 28.3478 36.1876L29.9687 36.5411C30.2472 37.312 30.6427 38.0191 31.1329 38.6393L30.6149 40.2738C30.4478 40.7955 30.587 41.3751 31.0104 41.7055C31.2722 41.9083 31.5395 42.0996 31.8236 42.2735L32.1244 42.4532C32.4029 42.6155 32.6926 42.7604 32.9878 42.8937C33.4724 43.1081 34.0239 42.9458 34.3804 42.5343L35.4833 41.2476C35.8621 41.3113 36.252 41.3461 36.6475 41.3461C37.043 41.3461 37.4329 41.3113 37.8117 41.2476L38.9146 42.5343L38.909 42.5459ZM36.6419 31.1565C36.993 31.1565 37.3407 31.2285 37.6651 31.3683C37.9895 31.5081 38.2843 31.713 38.5325 31.9714C38.7808 32.2297 38.9778 32.5364 39.1121 32.874C39.2465 33.2115 39.3157 33.5733 39.3157 33.9387C39.3157 34.304 39.2465 34.6658 39.1121 35.0033C38.9778 35.3409 38.7808 35.6476 38.5325 35.9059C38.2843 36.1643 37.9895 36.3692 37.6651 36.509C37.3407 36.6488 36.993 36.7208 36.6419 36.7208C36.2908 36.7208 35.9431 36.6488 35.6187 36.509C35.2943 36.3692 34.9996 36.1643 34.7513 35.9059C34.503 35.6476 34.3061 35.3409 34.1717 35.0033C34.0373 34.6658 33.9682 34.304 33.9682 33.9387C33.9682 33.5733 34.0373 33.2115 34.1717 32.874C34.3061 32.5364 34.503 32.2297 34.7513 31.9714C34.9996 31.713 35.2943 31.5081 35.6187 31.3683C35.9431 31.2285 36.2908 31.1565 36.6419 31.1565Z" fill="#FFFFFF"/>
</svg>
