<svg width="57" height="57" viewBox="0 0 57 57" fill="none" xmlns="http://www.w3.org/2000/svg">
<circle cx="28.5" cy="28.5" r="28.5" fill="#54637C"/>
<path d="M42.5133 31.9759L38.933 38.2733C38.2313 39.5241 36.9281 40.1785 35.6105 40.0913H32.7463V43L29.166 36.4554L32.7463 29.9107V32.8195H36.7849L33.6056 27.2202L39.8066 23.5843L42.3844 28.1219C43.1291 29.2417 43.2294 30.7397 42.5133 31.9759ZM24.4544 14H31.615C33.0184 14 34.2357 14.829 34.8229 16.0216L36.255 18.5522L38.7325 17.0978L34.9518 23.5115L27.5764 23.6424L30.0539 22.1881L28.0347 18.6249L24.8697 24.2242L18.6544 20.5883L21.2322 16.0507C21.8193 14.8435 23.0366 14 24.4544 14ZM18.4968 38.2879L14.9166 31.9905C14.2148 30.7543 14.3151 29.2708 15.0454 28.151L16.4776 25.6349L14 24.1805L21.361 24.2969L25.1561 30.7252L22.6786 29.2708L20.6593 32.8195H27.0179V40.0913H21.8623C21.1913 40.1406 20.5202 39.9977 19.9253 39.6789C19.3304 39.3601 18.8354 38.8782 18.4968 38.2879Z" fill="#FFFFFF"/>
</svg>
