<svg width="57" height="57" viewBox="0 0 57 57" fill="none" xmlns="http://www.w3.org/2000/svg">
<circle cx="28.5" cy="28.5" r="28.5" fill="#54637C"/>
<path d="M39.5882 35.75C38.0353 35.75 39.5882 34.155 39.5882 35.75C38.7412 35.315 39.5882 36.765 39.5882 35.75V32.85C40.4353 32.85 41 32.27 41 31.4V18.35C41 17.48 40.4353 16.9 39.5882 16.9H34.2235C33.0941 15.16 31.1176 14 29 14C26.8824 14 24.9059 15.16 23.7765 16.9H18.4118C17.5647 16.9 17 17.48 17 18.35V31.4C17 32.27 17.5647 32.85 18.4118 32.85V43H39.5882V38.65C39.5882 37.9185 39.5882 40.245 39.5882 38.65C39.5882 37.7999 39.5882 39.665 39.5882 38.65C39.5882 37.055 39.5882 36.365 39.5882 35.75ZM33.9412 38.65H24.0588V35.75H33.9412V38.65ZM38.1765 29.95H19.8235V19.8H38.1765V29.95Z" fill="#FFFFFF"/>
</svg>
