<svg width="57" height="57" viewBox="0 0 57 57" fill="none" xmlns="http://www.w3.org/2000/svg">
<circle cx="28.5" cy="28.5" r="28.5" fill="#54637C"/>
<path d="M37.0037 40.9999V38.9999H39.0037V40.9999H37.0037ZM31.0038 36.9999V35H33.0038V36.9999H31.0038ZM31.0038 42.9999H35.0038V40.9999H33.0038V38.9999H31.0038V42.9999ZM39.0037 38.9999V35H41.0037V38.9999H39.0037ZM41.0037 38.9999H43.0037V42.9999H39.0037V40.9999H41.0037V38.9999ZM39.0037 33V31H43.0037V35H41.0037V33H39.0037ZM37.0037 33H35.0038V36.9999H33.0038V38.9999H37.0037V33ZM31.0038 33V31H35.0038V33H31.0038ZM19.0039 35H23.0039V38.9999H19.0039V35Z" fill="white"/>
<path d="M26.9999 42.9998H15V30.9999H26.9999V42.9998ZM17 40.9998H24.9999V32.9999H17V40.9998ZM34.9998 19H38.9998V23H34.9998V19Z" fill="white"/>
<path d="M43.0037 26.9999H31.0038V15H43.0037V26.9999ZM33.0038 24.9999H41.0037V17H33.0038V24.9999ZM19.0039 19H23.0039V22.9999H19.0039V19Z" fill="white"/>
<path d="M26.9999 26.9999H15V15H26.9999V26.9999ZM17 24.9999H24.9999V17H17V24.9999Z" fill="white"/>
</svg>
