<svg width="57" height="57" viewBox="0 0 57 57" fill="none" xmlns="http://www.w3.org/2000/svg">
<circle cx="28.5" cy="28.5" r="28.5" fill="#54637C"/>
<path d="M16.1 42C15.2475 42 14.518 41.6956 13.9114 41.0869C13.3048 40.4781 13.001 39.7455 13 38.8889V17.1111C13 16.2556 13.3038 15.5234 13.9114 14.9147C14.519 14.3059 15.2485 14.001 16.1 14H40.9C41.7525 14 42.4825 14.3049 43.0901 14.9147C43.6977 15.5244 44.001 16.2566 44 17.1111V38.8889C44 39.7444 43.6967 40.4771 43.0901 41.0869C42.4836 41.6967 41.7535 42.001 40.9 42H16.1ZM16.1 38.8889H40.9V17.1111H16.1V38.8889ZM17.65 35.7778H25.4V32.6667H17.65V35.7778ZM32.4525 32.6667L40.125 24.9667L37.9162 22.75L32.4525 28.2722L30.2437 26.0556L28.0737 28.2722L32.4525 32.6667ZM17.65 29.5556H25.4V26.4444H17.65V29.5556ZM17.65 23.3333H25.4V20.2222H17.65V23.3333Z" fill="white"/>
</svg>
