<svg width="57" height="57" viewBox="0 0 57 57" fill="none" xmlns="http://www.w3.org/2000/svg">
<circle cx="28.5" cy="28.5" r="28.5" fill="#54637C"/>
<path d="M28.5 32.7647C23.9944 32.7647 15 35.0506 15 39.5882V43H42V39.5882C42 35.0506 33.0056 32.7647 28.5 32.7647ZM21.3112 22.5294H35.7056C36.1613 22.5294 36.5325 22.1541 36.5325 21.6935V21.6594C36.5325 21.4377 36.4454 21.2251 36.2903 21.0684C36.1352 20.9116 35.9249 20.8235 35.7056 20.8235H35.25C35.25 18.2988 33.8831 16.1324 31.875 14.9382V16.5588C31.875 17.0365 31.5037 17.4118 31.0312 17.4118C30.5588 17.4118 30.1875 17.0365 30.1875 16.5588V14.2388C29.6475 14.1024 29.0906 14 28.5 14C27.9094 14 27.3525 14.1024 26.8125 14.2388V16.5588C26.8125 17.0365 26.4412 17.4118 25.9688 17.4118C25.4963 17.4118 25.125 17.0365 25.125 16.5588V14.9382C23.1169 16.1324 21.75 18.2988 21.75 20.8235H21.3112C21.2027 20.8235 21.0951 20.8451 20.9948 20.8872C20.8945 20.9292 20.8033 20.9907 20.7266 21.0684C20.6498 21.146 20.5889 21.2381 20.5473 21.3395C20.5058 21.4409 20.4844 21.5496 20.4844 21.6594V21.7106C20.4844 22.1541 20.8556 22.5294 21.3112 22.5294ZM28.5 29.3529C31.6388 29.3529 34.2544 27.1694 35.0138 24.2353H21.9862C22.7456 27.1694 25.3612 29.3529 28.5 29.3529Z" fill="#FFFFFF"/>
</svg>
