<svg width="57" height="57" viewBox="0 0 57 57" fill="none" xmlns="http://www.w3.org/2000/svg">
<circle cx="28.5" cy="28.5" r="28.5" fill="#54637C"/>
<path d="M21.617 22.329C21.8965 23.3517 22.5044 24.2542 23.3473 24.8975C24.1901 25.5408 25.2211 25.8893 26.2814 25.8893H32.7262C34.6241 25.8897 36.461 26.5599 37.9132 27.7818C39.3654 29.0036 40.3397 30.6987 40.6645 32.5684C41.758 32.9252 42.6885 33.66 43.289 34.641C43.8894 35.6219 44.1204 36.7848 43.9405 37.9208C43.7606 39.0567 43.1816 40.0913 42.3074 40.8388C41.4332 41.5863 40.3212 41.9978 39.1709 41.9992C38.0456 42.0001 36.9552 41.6083 36.0877 40.8914C35.2203 40.1746 34.6303 39.1775 34.4193 38.0722C34.2083 36.967 34.3897 35.8227 34.9321 34.8368C35.4745 33.8509 36.344 33.0851 37.3906 32.6716C37.1111 31.6488 36.5031 30.7463 35.6603 30.103C34.8175 29.4597 33.7865 29.1112 32.7262 29.1113H26.2814C24.5379 29.1138 22.8411 28.5483 21.4478 27.5003V32.6071C22.5233 32.9872 23.4297 33.7351 24.007 34.7188C24.5842 35.7025 24.795 36.8586 24.6022 37.9827C24.4094 39.1068 23.8253 40.1265 22.9533 40.8616C22.0812 41.5968 20.9773 42 19.8366 42C18.696 42 17.5921 41.5968 16.72 40.8616C15.8479 40.1265 15.2639 39.1068 15.071 37.9827C14.8782 36.8586 15.0891 35.7025 15.6663 34.7188C16.2435 33.7351 17.15 32.9872 18.2254 32.6071V22.3934C17.1572 22.0163 16.2553 21.2761 15.6771 20.302C15.0989 19.3278 14.8812 18.1816 15.0619 17.0634C15.2426 15.9452 15.8103 14.9259 16.6659 14.1834C17.5215 13.4409 18.6106 13.0224 19.7433 13.0009C20.876 12.9794 21.9803 13.3562 22.8635 14.0656C23.7466 14.7751 24.3526 15.7721 24.5757 16.8826C24.7988 17.9932 24.6248 19.1468 24.084 20.1422C23.5433 21.1376 22.6702 21.9115 21.617 22.329Z" fill="#FFFFFF"/>
</svg>
