<svg width="57" height="57" viewBox="0 0 57 57" fill="none" xmlns="http://www.w3.org/2000/svg">
<circle cx="28.5" cy="28.5" r="28.5" fill="#54637C"/>
<path d="M42.9995 27.4641H29.5354V14H27.4641V27.4641H14V29.5354H27.4641V42.9995H29.5354V29.5354H42.9995V27.4641Z" fill="#FFFFFF"/>
<path d="M38.4287 32.6406L39.8932 34.1051L36.1792 37.8191L39.8932 41.5331L38.4287 42.9976L33.2502 37.8191L38.4287 32.6406Z" fill="#FFFFFF"/>
<path d="M23.3232 42.9984H15.0376C14.8611 42.9983 14.6876 42.9531 14.5335 42.8671C14.3794 42.7811 14.2498 42.6572 14.157 42.5071C14.0643 42.3569 14.0114 42.1856 14.0035 42.0093C13.9956 41.833 14.0328 41.6576 14.1117 41.4997L18.2545 33.2142C18.35 33.0536 18.4856 32.9207 18.6481 32.8284C18.8105 32.736 18.9941 32.6875 19.1809 32.6875C19.3677 32.6875 19.5513 32.736 19.7137 32.8284C19.8761 32.9207 20.0118 33.0536 20.1073 33.2142L24.2501 41.4997C24.329 41.6577 24.3663 41.8332 24.3583 42.0095C24.3503 42.1859 24.2973 42.3573 24.2045 42.5075C24.1116 42.6577 23.9819 42.7816 23.8276 42.8675C23.6734 42.9534 23.4997 42.9985 23.3232 42.9984ZM16.7133 40.927H21.6474L19.1804 35.9929L16.7133 40.927Z" fill="#FFFFFF"/>
<path d="M40.9277 24.357H34.7135C34.1643 24.3564 33.6377 24.138 33.2494 23.7497C32.861 23.3613 32.6426 22.8348 32.6421 22.2856V16.0714C32.6426 15.5222 32.861 14.9956 33.2494 14.6073C33.6377 14.219 34.1643 14.0005 34.7135 14H40.9277C41.4769 14.0005 42.0034 14.219 42.3918 14.6073C42.7801 14.9956 42.9985 15.5222 42.9991 16.0714V22.2856C42.9985 22.8348 42.7801 23.3613 42.3918 23.7497C42.0034 24.138 41.4769 24.3564 40.9277 24.357V24.357ZM34.7135 16.0714V22.2856H40.9287L40.9277 16.0714H34.7135Z" fill="#FFFFFF"/>
<path d="M19.1785 24.357C18.1543 24.357 17.1531 24.0533 16.3015 23.4842C15.4499 22.9152 14.7861 22.1064 14.3942 21.1602C14.0022 20.214 13.8997 19.1727 14.0995 18.1682C14.2993 17.1637 14.7925 16.241 15.5167 15.5167C16.241 14.7925 17.1637 14.2993 18.1682 14.0995C19.1727 13.8997 20.214 14.0022 21.1602 14.3942C22.1064 14.7861 22.9152 15.4499 23.4842 16.3015C24.0533 17.1531 24.357 18.1543 24.357 19.1785C24.3553 20.5514 23.8092 21.8676 22.8384 22.8384C21.8676 23.8092 20.5514 24.3553 19.1785 24.357ZM19.1785 16.0714C18.564 16.0714 17.9632 16.2536 17.4523 16.595C16.9413 16.9364 16.5431 17.4217 16.3079 17.9895C16.0727 18.5572 16.0112 19.1819 16.1311 19.7846C16.251 20.3874 16.5469 20.941 16.9814 21.3755C17.416 21.8101 17.9696 22.106 18.5723 22.2259C19.175 22.3458 19.7998 22.2842 20.3675 22.0491C20.9353 21.8139 21.4205 21.4156 21.7619 20.9047C22.1033 20.3937 22.2856 19.793 22.2856 19.1785C22.2847 18.3547 21.9571 17.5649 21.3746 16.9823C20.7921 16.3998 20.0023 16.0722 19.1785 16.0714V16.0714Z" fill="#FFFFFF"/>
</svg>
