<svg width="57" height="57" viewBox="0 0 57 57" fill="none" xmlns="http://www.w3.org/2000/svg">
<circle cx="28.5" cy="28.5" r="28.5" fill="#54637C"/>
<path d="M36.5881 17.5434L33.6881 16.0136C31.1419 14.6717 29.8688 14 28.5 14C27.1312 14 25.8581 14.6702 23.3119 16.0136L22.8465 16.2598L35.7848 23.689L41.608 20.7605C40.6713 19.6939 39.1604 18.897 36.5881 17.5405V17.5434ZM42.6346 22.6895L36.8375 25.6035V30.0269C36.8375 30.3167 36.7229 30.5947 36.519 30.7996C36.315 31.0045 36.0384 31.1197 35.75 31.1197C35.4616 31.1197 35.185 31.0045 34.981 30.7996C34.7771 30.5947 34.6625 30.3167 34.6625 30.0269V26.6948L29.5875 29.2445V43C30.6286 42.7392 31.8133 42.1156 33.6881 41.1263L36.5881 39.5965C39.707 37.9515 41.2673 37.1298 42.1344 35.6509C43 34.1735 43 32.3334 43 28.6574V28.4869C43 25.7288 43 24.0037 42.6346 22.6895ZM27.4125 43V29.246L14.3654 22.6895C14 24.0037 14 25.7288 14 28.484V28.6544C14 32.3333 14 34.1735 14.8656 35.6509C15.7327 37.1298 17.2929 37.953 20.4119 39.5979L23.3119 41.1263C25.1868 42.1156 26.3714 42.7392 27.4125 43ZM15.392 20.7619L28.5 27.3475L33.446 24.8633L20.5613 17.4647L20.4119 17.5434C17.8411 18.8984 16.3287 19.6954 15.392 20.7634V20.7619Z" fill="#FFFFFF"/>
</svg>
