<svg width="57" height="57" viewBox="0 0 57 57" fill="none" xmlns="http://www.w3.org/2000/svg">
<circle cx="28.5" cy="28.5" r="28.5" fill="#54637C"/>
<path d="M42.9376 33.2337C41.3635 32.3193 39.445 32.5646 38.1524 33.7096L36.1894 32.5683V26.929C36.1894 26.3454 35.8783 25.8027 35.3746 25.5127L30.3375 22.602V20.1076C31.9745 19.55 33.1523 17.9962 33.1523 16.1635C33.1523 13.8624 31.2967 12 29.0041 12C26.7115 12 24.8559 13.8624 24.8559 16.1635C24.8559 17.9962 26.0337 19.55 27.6708 20.1076V22.602L22.6337 25.5127C22.13 25.8027 21.8189 26.3454 21.8189 26.929V32.5646L19.8559 33.7059C18.5633 32.5609 16.641 32.3155 15.0706 33.23C13.0891 34.3824 12.415 36.9251 13.5521 38.9139C14.6928 40.9027 17.2151 41.5867 19.1892 40.438C20.7633 39.5236 21.5114 37.7243 21.1744 36.0218L22.9781 34.9698L28.1856 37.9809C28.4375 38.1258 28.7189 38.2002 29.0004 38.2002C29.2819 38.2002 29.5634 38.1258 29.8153 37.9809L35.019 34.9735L36.8227 36.0255C36.4857 37.7243 37.2376 39.5273 38.808 40.4418C40.7821 41.5904 43.308 40.9102 44.4451 38.9176C45.5858 36.9251 44.9117 34.3824 42.9376 33.2337ZM18.0114 38.3786C17.8102 38.4956 17.588 38.5714 17.3575 38.6018C17.127 38.6322 16.8928 38.6166 16.6684 38.5557C16.4439 38.4949 16.2337 38.3902 16.0497 38.2475C15.8658 38.1048 15.7118 37.927 15.5966 37.7243C15.1077 36.8731 15.3966 35.7802 16.2447 35.2895C16.4459 35.1725 16.6681 35.0967 16.8986 35.0663C17.1291 35.0359 17.3633 35.0515 17.5878 35.1123C17.8122 35.1731 18.0224 35.2779 18.2064 35.4206C18.3903 35.5633 18.5443 35.7411 18.6596 35.9437C19.1485 36.795 18.8596 37.8879 18.0114 38.3786ZM27.2226 16.1635C27.2321 15.6965 27.4236 15.252 27.756 14.9251C28.0883 14.5983 28.5351 14.4152 29.0004 14.4152C29.4657 14.4152 29.9125 14.5983 30.2449 14.9251C30.5773 15.252 30.7687 15.6965 30.7782 16.1635C30.7687 16.6304 30.5773 17.075 30.2449 17.4019C29.9125 17.7287 29.4657 17.9118 29.0004 17.9118C28.5351 17.9118 28.0883 17.7287 27.756 17.4019C27.4236 17.075 27.2321 16.6304 27.2226 16.1635ZM33.519 32.7505L29.0004 35.3638L24.4819 32.7505V27.5313L29.0004 24.9179L33.519 27.5313V32.7505ZM42.4043 37.7281C41.9154 38.5793 40.8339 38.873 39.9895 38.3823C39.145 37.8916 38.8524 36.7987 39.3413 35.9474C39.8302 35.0962 40.9117 34.8025 41.7561 35.2932C42.6043 35.7839 42.8932 36.8731 42.4043 37.7281Z" fill="#FFFFFF"/>
</svg>
