<svg width="57" height="57" viewBox="0 0 57 57" fill="none" xmlns="http://www.w3.org/2000/svg">
<circle cx="28.5" cy="28.5" r="28.5" fill="#54637C"/>
<path d="M15.9813 37.8862L17.1092 36.5818C17.3337 36.3304 17.451 36.0006 17.436 35.6633V35.449C17.436 34.9732 17.1885 34.7143 16.7051 34.7143H13.0312C12.8945 34.7143 12.7633 34.7688 12.6666 34.866C12.5699 34.9631 12.5156 35.0948 12.5156 35.2321V36.2679C12.5156 36.4052 12.5699 36.5369 12.6666 36.634C12.7633 36.7312 12.8945 36.7857 13.0312 36.7857H14.5027C14.2527 37.0387 14.016 37.3047 13.7937 37.5826L13.4321 38.0357C13.1743 38.3639 13.0938 38.6914 13.2517 38.9989L13.3194 39.1238C13.5127 39.4967 13.7248 39.6339 14.1089 39.6339H14.4138C15.0796 39.6339 15.4412 39.7919 15.4412 40.2223C15.4412 40.5279 15.1704 40.7544 14.5156 40.7544C14.1734 40.7517 13.835 40.6832 13.5185 40.5525C13.1002 40.3013 12.7618 40.3259 12.513 40.7544L12.1528 41.3571C11.913 41.7539 11.9471 42.1158 12.3223 42.3889C12.8192 42.6925 13.6358 43 14.707 43C16.9088 43 17.833 41.5273 17.833 40.144C17.8311 39.2132 17.2452 38.2176 15.9813 37.8862ZM43.9688 26.4286H23.3438C23.0702 26.4286 22.8079 26.5377 22.6145 26.7319C22.4211 26.9262 22.3125 27.1896 22.3125 27.4643V29.5357C22.3125 29.8104 22.4211 30.0738 22.6145 30.2681C22.8079 30.4623 23.0702 30.5714 23.3438 30.5714H43.9688C44.2423 30.5714 44.5046 30.4623 44.698 30.2681C44.8913 30.0738 45 29.8104 45 29.5357V27.4643C45 27.1896 44.8913 26.9262 44.698 26.7319C44.5046 26.5377 44.2423 26.4286 43.9688 26.4286ZM43.9688 16.0714H23.3438C23.0702 16.0714 22.8079 16.1805 22.6145 16.3748C22.4211 16.569 22.3125 16.8325 22.3125 17.1071V19.1786C22.3125 19.4533 22.4211 19.7167 22.6145 19.9109C22.8079 20.1052 23.0702 20.2143 23.3438 20.2143H43.9688C44.2423 20.2143 44.5046 20.1052 44.698 19.9109C44.8913 19.7167 45 19.4533 45 19.1786V17.1071C45 16.8325 44.8913 16.569 44.698 16.3748C44.5046 16.1805 44.2423 16.0714 43.9688 16.0714ZM43.9688 36.7857H23.3438C23.0702 36.7857 22.8079 36.8948 22.6145 37.0891C22.4211 37.2833 22.3125 37.5467 22.3125 37.8214V39.8929C22.3125 40.1675 22.4211 40.431 22.6145 40.6252C22.8079 40.8195 23.0702 40.9286 23.3438 40.9286H43.9688C44.2423 40.9286 44.5046 40.8195 44.698 40.6252C44.8913 40.431 45 40.1675 45 39.8929V37.8214C45 37.5467 44.8913 37.2833 44.698 37.0891C44.5046 36.8948 44.2423 36.7857 43.9688 36.7857ZM13.0312 22.2857H17.1562C17.293 22.2857 17.4242 22.2312 17.5209 22.134C17.6176 22.0369 17.6719 21.9052 17.6719 21.7679V20.7321C17.6719 20.5948 17.6176 20.4631 17.5209 20.366C17.4242 20.2688 17.293 20.2143 17.1562 20.2143H16.125V14.5179C16.125 14.3805 16.0707 14.2488 15.974 14.1517C15.8773 14.0546 15.7461 14 15.6094 14H14.0625C13.9669 14.0002 13.8733 14.027 13.792 14.0775C13.7108 14.1281 13.6451 14.2003 13.6023 14.2861L13.0867 15.3218C13.0474 15.4007 13.0288 15.4884 13.0327 15.5765C13.0366 15.6646 13.0628 15.7503 13.1089 15.8254C13.155 15.9004 13.2194 15.9625 13.2961 16.0055C13.3727 16.0486 13.459 16.0713 13.5469 16.0714H14.0625V20.2143H13.0312C12.8945 20.2143 12.7633 20.2688 12.6666 20.366C12.5699 20.4631 12.5156 20.5948 12.5156 20.7321V21.7679C12.5156 21.9052 12.5699 22.0369 12.6666 22.134C12.7633 22.2312 12.8945 22.2857 13.0312 22.2857ZM12.7792 32.6429H17.1562C17.293 32.6429 17.4242 32.5883 17.5209 32.4912C17.6176 32.3941 17.6719 32.2623 17.6719 32.125V31.0893C17.6719 30.9519 17.6176 30.8202 17.5209 30.7231C17.4242 30.626 17.293 30.5714 17.1562 30.5714H14.6632C14.8753 29.9053 17.7789 29.3622 17.7789 26.9179C17.7789 25.0368 16.1675 24.3571 14.9126 24.3571C13.5359 24.3571 12.7341 25.0045 12.3049 25.5709C12.0232 25.9327 12.1115 26.2726 12.4853 26.5658L13.0383 27.0112C13.3999 27.3063 13.7473 27.171 14.0773 26.8532C14.2401 26.693 14.4592 26.6037 14.6871 26.6046C14.9017 26.6046 15.2852 26.7056 15.2852 27.171C15.2871 27.9944 12 28.5848 12 31.6453V31.9043C12 32.3839 12.3274 32.6429 12.7792 32.6429Z" fill="#FFFFFF"/>
</svg>
