<svg width="57" height="57" viewBox="0 0 57 57" fill="none" xmlns="http://www.w3.org/2000/svg">
<circle cx="28.5" cy="28.5" r="28.5" fill="#54637C"/>
<path d="M37.9831 13.5489C38.3346 13.1974 38.8113 13 39.3084 13C39.8055 13 40.2822 13.1974 40.6337 13.5489L43.4512 16.3665C43.8026 16.7181 44 17.1948 44 17.6919C44 18.189 43.8026 18.6657 43.4512 19.0173L40.6337 21.8349C40.2822 22.1864 39.8055 22.3838 39.3084 22.3838C38.8113 22.3838 38.3346 22.1864 37.9831 21.8349L35.1637 19.0173C34.8123 18.6657 34.6149 18.189 34.6149 17.6919C34.6149 17.1948 34.8123 16.7181 35.1637 16.3665L37.9831 13.5489ZM18.6864 43H21.4982V35.5013H14V38.3133C14 39.5563 14.4937 40.7484 15.3726 41.6273C16.2515 42.5062 17.4435 43 18.6864 43ZM21.4982 26.1279V33.6266H14V26.1279H21.4982ZM30.871 33.6266H23.3728V26.1279H30.871V33.6266ZM23.3728 35.5013H30.871V43H23.3728V35.5013ZM32.7456 26.1279V33.6266H40.2438V26.1279H32.7456ZM32.7456 35.5013H40.2438V38.3133C40.2438 39.5563 39.75 40.7484 38.8712 41.6273C37.9923 42.5062 36.8003 43 35.5574 43H32.7456V35.5013ZM14 24.2533H21.4982V16.7546H18.6864C17.4435 16.7546 16.2515 17.2483 15.3726 18.1273C14.4937 19.0062 14 20.1983 14 21.4413V24.2533ZM23.3728 24.2533V16.7546H30.871V24.2533H23.3728Z" fill="#FFFFFF"/>
</svg>
